<svg width="80" height="80" viewBox="0 0 80 80" fill="none" xmlns="http://www.w3.org/2000/svg">
<g clip-path="url(#clip0_2597_38427)">
<rect width="80" height="80" rx="40" fill="#CBCED5"/>
<mask id="mask0_2597_38427" style="mask-type:alpha" maskUnits="userSpaceOnUse" x="0" y="0" width="80" height="80">
<circle cx="40" cy="40" r="40" fill="#F7F9FD"/>
</mask>
<g mask="url(#mask0_2597_38427)">
<path fill-rule="evenodd" clip-rule="evenodd" d="M51.3852 29.6367C51.1295 29.714 50.8691 29.8022 50.6093 29.9068C51.4547 26.6531 51.7841 25.3245 51.9175 24.2572C51.9175 24.2572 53.4157 18.8091 50.0787 17.1746C51.0223 15.9165 51.6023 15.5013 51.7894 15.3952C51.699 15.427 51.5157 15.4721 51.2365 15.4721C50.8512 15.4721 50.4603 15.1058 49.9429 14.621C48.931 13.6728 47.4352 12.2713 44.5511 12.2713C44.6556 12.1807 44.7536 12.0959 44.8452 12.0167C45.6794 11.2949 45.9876 11.0283 45.9452 10.9489C45.9204 10.9024 45.7752 10.9202 45.5451 10.9485C44.9464 11.0219 43.7724 11.1658 42.6442 10.4325C40.2606 8.88319 35.9816 9.68338 34.8238 10.8411C34.7413 10.7237 34.625 10.6062 34.4966 10.4766C34.1039 10.0799 33.598 9.56892 33.598 8.59375C32.6666 8.96115 32.6408 10.1203 32.6159 11.2396C32.5915 12.3376 32.568 13.3972 31.6911 13.6333C29.9205 14.11 29.1714 14.791 28.2179 17.1746C28.0594 17.5711 27.9323 17.9185 27.8208 18.2236C27.2619 19.7527 27.0923 20.2164 25.2895 20.4435C25.2895 20.4435 25.9706 21.1926 26.9921 21.5332C27.0899 21.8408 27.0902 22.1276 27.0905 22.532C27.091 23.1563 27.0917 24.061 27.452 25.7555C27.7637 27.2214 28.1986 28.6123 28.5611 29.7704C28.3934 29.7099 28.2263 29.6554 28.0611 29.6055C26.4822 29.1284 26.0085 30.8998 26.5073 32.7385C26.6016 33.0862 26.7123 33.6302 26.8369 34.2422C27.087 35.4708 27.3929 36.9731 27.7331 37.71C28.4477 39.2576 29.1353 39.1284 29.7225 38.9691C30.2124 42.0377 30.9646 44.2196 31.9067 45.7715V49.51C31.8065 49.5428 31.6977 49.5933 31.5805 49.6667C31.2866 49.8509 31.1778 50.5044 31.0438 51.3094C30.8362 52.5563 30.5681 54.1667 29.4578 54.96C29.3222 55.0569 29.1541 55.1831 28.9522 55.3346C27.7609 56.2285 25.3923 58.0057 21.5694 59.8749C19.6011 60.8373 18.2593 61.1719 16.9888 61.4888C15.5102 61.8576 14.128 62.2024 11.967 63.4843C7.949 65.8679 5.25098 72.8143 5.25098 81.6676H74.7571C74.7571 74.8574 72.4417 66.2765 68.2194 63.4843C65.8388 61.91 64.0194 61.5924 62.1171 61.2603C60.6454 61.0033 59.1241 60.7377 57.255 59.8749C53.4412 58.1144 51.6122 56.5333 50.5241 55.5927C50.2171 55.3274 49.9692 55.1131 49.7522 54.96C49.7521 54.9599 49.752 54.9599 49.7519 54.9598L49.7528 54.9702C49.3501 54.6523 48.9737 54.2684 48.5992 53.8863C47.7702 53.0407 46.9498 52.2038 45.8709 52.11C45.4452 52.0729 44.7663 52.0666 43.9614 52.0591C41.8053 52.0389 38.7447 52.0103 37.222 51.3608C35.6299 50.6818 34.9746 48.6368 34.8384 48.16C34.9002 48.2099 34.948 48.2602 34.9989 48.3138C35.1864 48.5111 35.4164 48.7531 36.5409 49.1816C37.9711 49.7264 41.8529 49.7945 43.215 49.1816C44.3685 48.6625 46.2057 47.3619 47.8996 45.0317C48.6256 43.5336 49.2134 41.5614 49.6226 38.9727L49.6618 38.9834C50.2624 39.1484 50.9732 39.3436 51.7131 37.7412C52.0534 37.0044 52.3592 35.502 52.6094 34.2735L52.6094 34.2735C52.734 33.6615 52.8447 33.1174 52.939 32.7698C53.4377 30.931 52.964 29.1596 51.3852 29.6367Z" fill="#EDF0F4"/>
</g>
</g>
<defs>
<clipPath id="clip0_2597_38427">
<rect width="80" height="80" rx="40" fill="white"/>
</clipPath>
</defs>
</svg>
