<svg width="24" height="24" viewBox="0 0 24 24" fill="none" xmlns="http://www.w3.org/2000/svg">
<path d="M13.5 12.7227C14 12.7227 13 13.722 13 13.722C13 13.722 12.5 14.2229 13 14.7224C13.1953 14.9175 13.5 15.222 13.5 15.222C13.5 15.222 14 15.7215 14.5 15.222C17.5 12.2247 17.5 12.2229 17.5 11.7229C17.5 11.2229 17.5 11.2229 14.5 8.22288C14 7.72227 13.5 8.22139 13.5 8.22139C13.5 8.22139 13.1952 8.52642 13 8.72197C12.5 9.22288 13 9.72236 13 9.72236C13 9.72236 14 10.7226 13.5 10.7227C13 10.7227 7 10.7228 7 10.7228C7 10.7228 6 10.7228 6 11.7228C6 12.7228 7 12.7228 7 12.7228C7 12.7228 12 12.7227 13.5 12.7227Z" fill="#212227"/>
</svg>
