<svg width="31" height="30" viewBox="0 0 31 30" fill="none" xmlns="http://www.w3.org/2000/svg">
<path d="M14.5625 9.1875C14.3036 9.1875 14.0938 9.39736 14.0938 9.65625V24.6564C14.0938 24.9152 14.3036 25.1251 14.5625 25.1251C14.8214 25.1251 15.0312 24.9152 15.0312 24.6564V9.65625C15.0312 9.39741 14.8214 9.1875 14.5625 9.1875Z" fill="white"/>
<path d="M9.875 19.5H9.88606C10.145 19.5 10.3548 19.2901 10.3548 19.0312C10.3548 18.7724 10.145 18.5625 9.88606 18.5625H9.875C9.61611 18.5625 9.40625 18.7724 9.40625 19.0312C9.40625 19.2901 9.61611 19.5 9.875 19.5Z" fill="white"/>
<path d="M16.9063 11.0137C16.9063 10.7548 16.6964 10.5449 16.4375 10.5449C16.1786 10.5449 15.9688 10.7548 15.9688 11.0137V12.4684L15.9689 24.656C15.9689 24.9148 16.1788 25.1247 16.4376 25.1247C16.6965 25.1247 16.9064 24.9148 16.9064 24.656L16.9063 12.4684V11.0137Z" fill="white"/>
<path d="M16.4375 10.1361C16.6964 10.1361 16.9062 9.92616 16.9062 9.66731V9.65625C16.9062 9.39736 16.6964 9.1875 16.4375 9.1875C16.1786 9.1875 15.9688 9.39736 15.9688 9.65625V9.66731C15.9688 9.9262 16.1787 10.1361 16.4375 10.1361Z" fill="white"/>
<path d="M5.19856 26.0625H5.1875C4.92866 26.0625 4.71875 26.2724 4.71875 26.5312C4.71875 26.7901 4.92861 27 5.1875 27H5.19856C5.45745 27 5.66731 26.7901 5.66731 26.5312C5.66731 26.2724 5.4575 26.0625 5.19856 26.0625Z" fill="white"/>
<path d="M25.8123 26.0625H25.8013C25.5424 26.0625 25.3325 26.2724 25.3325 26.5312C25.3325 26.7901 25.5424 27 25.8013 27H25.8123C26.0712 27 26.2811 26.7901 26.2811 26.5312C26.2811 26.2724 26.0712 26.0625 25.8123 26.0625Z" fill="white"/>
<path d="M24.4545 26.0625H22.531V25.0778C23.5996 24.86 24.4061 23.913 24.4061 22.781C24.4061 21.4886 23.3547 20.4372 22.0624 20.4372C20.77 20.4372 19.7186 21.4886 19.7186 22.781C19.7186 23.9129 20.525 24.8599 21.5935 25.0777V26.0625H18.7812V7.7813C18.7812 7.52245 18.5713 7.31255 18.3124 7.31255H17.8436V5.90616C17.8436 5.64731 17.6338 5.43741 17.3749 5.43741H17.3155C17.1456 4.77956 16.6265 4.26052 15.9686 4.09059V3.46875C15.9686 3.20991 15.7587 3 15.4999 3C15.241 3 15.0311 3.20991 15.0311 3.46875V4.09064C14.3732 4.26061 13.8542 4.77956 13.6843 5.43745H13.6248C13.366 5.43745 13.1561 5.64736 13.1561 5.9062V7.31259H12.6874C12.4285 7.31259 12.2186 7.5225 12.2186 7.78134V16.6875H7.06243C6.80359 16.6875 6.59368 16.8974 6.59368 17.1562V26.0625H6.54517C6.28632 26.0625 6.07642 26.2724 6.07642 26.5312C6.07642 26.7901 6.28632 27 6.54517 27H7.06243H12.6874H18.3124H24.4545C24.7134 27 24.9232 26.7901 24.9232 26.5312C24.9232 26.2724 24.7134 26.0625 24.4545 26.0625ZM12.2186 18.5625H11.2328C10.9739 18.5625 10.764 18.7723 10.764 19.0312C10.764 19.29 10.9739 19.5 11.2328 19.5H12.2186V20.4374H9.87489C9.61599 20.4374 9.40613 20.6473 9.40613 20.9061C9.40613 21.165 9.61599 21.3749 9.87489 21.3749H12.2186V22.3125H9.87489C9.61599 22.3125 9.40613 22.5223 9.40613 22.7812C9.40613 23.04 9.61599 23.25 9.87489 23.25H12.2186V24.1874H9.87489C9.61599 24.1874 9.40613 24.3973 9.40613 24.6562C9.40613 24.915 9.61599 25.1249 9.87489 25.1249H12.2186V26.0625H7.53118V17.625H12.2186V18.5625ZM15.4999 4.9688C15.846 4.9688 16.1481 5.15775 16.3105 5.43741H14.6893C14.8517 5.15775 15.1538 4.9688 15.4999 4.9688ZM14.0936 6.37491H16.9061V7.31255H14.0936V6.37491ZM17.8437 26.0625H13.1561V17.1562V8.25005H13.6248H17.3749H17.8437V26.0625ZM22.0623 23.2499C21.8034 23.2499 21.5935 23.4598 21.5935 23.7187V24.1067C21.048 23.9132 20.6561 23.3921 20.6561 22.781C20.6561 22.0056 21.2869 21.3747 22.0624 21.3747C22.8378 21.3747 23.4686 22.0056 23.4686 22.781C23.4686 23.3922 23.0767 23.9133 22.531 24.1068V23.7187C22.531 23.4598 22.3211 23.2499 22.0623 23.2499Z" fill="white" stroke="white" stroke-width="0.2"/>
</svg>
