<svg width="30" height="30" viewBox="0 0 30 30" fill="none" xmlns="http://www.w3.org/2000/svg">
<path d="M24.4961 7.49057H19.4089V5.79482C19.3602 5.12166 19.0479 4.49485 18.54 4.0504C18.0321 3.60597 17.3694 3.37973 16.6957 3.42076H13.3042C12.6305 3.37973 11.9678 3.60597 11.4598 4.0504C10.9519 4.49485 10.6397 5.12166 10.591 5.79482V7.49057H5.50369C4.87515 7.49414 4.27338 7.7454 3.82891 8.18986C3.38446 8.63431 3.13321 9.23609 3.12964 9.86463V23.4306C3.13321 24.0591 3.38446 24.6609 3.82891 25.1055C4.27338 25.5499 4.87515 25.8012 5.50369 25.8047H24.4961C25.1247 25.8012 25.7264 25.5499 26.1709 25.1055C26.6154 24.6609 26.8667 24.0591 26.8702 23.4306V9.86463C26.8667 9.23609 26.6154 8.63431 26.1709 8.18986C25.7264 7.7454 25.1247 7.49414 24.4961 7.49057ZM12.6259 5.79482C12.6259 5.68629 12.8836 5.45567 13.3042 5.45567H16.6957C17.1162 5.45567 17.374 5.68629 17.374 5.79482V7.49057H12.6259V5.79482ZM5.50369 9.52548H24.4961C24.5861 9.52548 24.6724 9.56121 24.736 9.62482C24.7996 9.68842 24.8353 9.77469 24.8353 9.86463V14.2736H5.16454V9.86463C5.16454 9.77469 5.20028 9.68842 5.26387 9.62482C5.32748 9.56121 5.41375 9.52548 5.50369 9.52548ZM10.591 16.3085H19.4089V18.3434H10.591V16.3085ZM24.4961 23.7698H5.50369C5.41375 23.7698 5.32748 23.7341 5.26387 23.6705C5.20028 23.6069 5.16454 23.5206 5.16454 23.4306V16.3085H8.55605V19.3608C8.55957 19.6296 8.66789 19.8864 8.85794 20.0764C9.048 20.2665 9.30475 20.3747 9.5735 20.3783H20.4263C20.6951 20.3747 20.9519 20.2665 21.1419 20.0764C21.332 19.8864 21.4403 19.6296 21.4438 19.3608V16.3085H24.8353V23.4306C24.8353 23.5206 24.7996 23.6069 24.736 23.6705C24.6724 23.7341 24.5861 23.7698 24.4961 23.7698Z" fill="white"/>
</svg>
