<svg width="24" height="24" viewBox="0 0 24 24" fill="none" xmlns="http://www.w3.org/2000/svg">
<g id="24/Close">
<path id="Vector (Stroke)" fill-rule="evenodd" clip-rule="evenodd" d="M5.9994 5.99879C6.33413 5.66405 7.12852 5.66663 7.46325 6.00137L11.9987 10.499L16.4987 5.99902C16.8334 5.66429 17.6639 5.66663 17.9987 6.00137C18.3334 6.3361 18.3334 7.16429 17.9987 7.49902L13.4987 11.999L17.9987 16.499C18.3334 16.8338 18.3334 17.6643 17.9987 17.999C17.6639 18.3338 16.8715 18.3338 16.5368 17.999L11.9987 13.499L7.49866 17.999C7.16392 18.3338 6.33339 18.3338 5.99866 17.999C5.66392 17.6643 5.66678 16.8338 6.00151 16.499L10.4987 11.999L6.00002 7.50014C5.66528 7.1654 5.66466 6.33352 5.9994 5.99879Z" fill="#020614"/>
</g>
</svg>
