<svg width="31" height="31" viewBox="0 0 31 31" fill="none" xmlns="http://www.w3.org/2000/svg">
    <rect x="0.324219" y="0.748047" width="30" height="30" rx="15" fill="#575960" />
    <mask id="mask0_2542_7003" style="mask-type:alpha" maskUnits="userSpaceOnUse" x="0" y="0"
        width="31" height="31">
        <circle cx="15.3242" cy="15.748" r="15" fill="#C4C4C4" />
    </mask>
    <g mask="url(#mask0_2542_7003)">
        <path fill-rule="evenodd" clip-rule="evenodd"
            d="M19.5928 11.8608C19.4977 11.8896 19.4008 11.9224 19.3041 11.9612C19.6208 10.7424 19.7442 10.2445 19.7942 9.84451C19.7942 9.84451 20.356 7.80145 19.1047 7.18853C19.4585 6.71676 19.676 6.56105 19.7462 6.52125C19.7122 6.53319 19.6435 6.55007 19.5388 6.55007C19.3943 6.55007 19.2477 6.41272 19.0537 6.23094C18.6742 5.87536 18.1133 5.34977 17.0318 5.34977C17.071 5.3158 17.1077 5.28403 17.1421 5.25431C17.4549 4.98363 17.5705 4.88364 17.5546 4.85389C17.5453 4.83646 17.4908 4.84314 17.4045 4.85372C17.18 4.88125 16.7398 4.93524 16.3167 4.66024C15.4229 4.07924 13.8182 4.37932 13.3841 4.81347C13.3531 4.76943 13.3095 4.72539 13.2614 4.67676C13.1141 4.52802 12.9244 4.33639 12.9244 3.9707C12.5751 4.10848 12.5654 4.54318 12.5561 4.96291C12.547 5.37466 12.5381 5.77201 12.2093 5.86054C11.5453 6.03931 11.2644 6.29469 10.9069 7.18853C10.8474 7.3372 10.7998 7.4675 10.7579 7.58189C10.5483 8.1553 10.4848 8.32921 9.80871 8.41437C9.80871 8.41437 10.0641 8.69529 10.4472 8.82298C10.4839 8.93834 10.4839 9.04588 10.4841 9.19755C10.4843 9.43167 10.4845 9.77093 10.6196 10.4064C10.7367 10.9568 10.9 11.479 11.0361 11.9136C10.9726 11.8906 10.9093 11.87 10.8468 11.8511C10.2547 11.6722 10.0771 12.3364 10.2641 13.026C10.2994 13.1563 10.341 13.3604 10.3877 13.5899C10.4815 14.0506 10.5962 14.6139 10.7238 14.8903C10.9915 15.4701 11.2491 15.4222 11.4692 15.3626C11.653 16.5143 11.9353 17.333 12.2889 17.9151V19.3117C12.2508 19.324 12.2093 19.3431 12.1646 19.3711C12.0544 19.4402 12.0136 19.6852 11.9633 19.9871C11.8855 20.4547 11.7849 21.0586 11.3686 21.3561C11.3178 21.3924 11.2548 21.4397 11.1791 21.4964L11.179 21.4965L11.179 21.4965C10.7322 21.8318 9.84403 22.4982 8.41043 23.1992C7.67231 23.5601 7.16915 23.6856 6.69269 23.8044C6.13823 23.9427 5.61991 24.072 4.80954 24.5527C3.30278 25.4466 2.29102 28.0515 2.29102 31.3715H28.3558C28.3558 28.8176 27.4876 25.5998 25.9042 24.5527C25.0115 23.9624 24.3292 23.8432 23.6158 23.7187C23.0639 23.6223 22.4934 23.5227 21.7925 23.1992C20.3624 22.539 19.6765 21.9461 19.2684 21.5934L19.2684 21.5933L19.2683 21.5933C19.1542 21.4946 19.0617 21.4147 18.9808 21.3574L18.9811 21.3609C18.9625 21.3462 18.9441 21.3312 18.9258 21.3158C18.9111 21.3039 18.8968 21.2915 18.8827 21.2788C18.768 21.1783 18.6581 21.0662 18.5485 20.9544C18.2377 20.6373 17.93 20.3235 17.5255 20.2883C17.3658 20.2744 17.1112 20.272 16.8094 20.2692C16.0008 20.2617 14.8531 20.2509 14.2821 20.0074C13.6851 19.7528 13.4393 18.9859 13.3883 18.8071C13.4114 18.8258 13.4293 18.8446 13.4484 18.8647C13.5187 18.9387 13.605 19.0295 14.0267 19.1902C14.563 19.3945 16.0187 19.42 16.5295 19.1902C16.9627 18.9952 17.653 18.5064 18.289 17.6301C18.56 17.0686 18.7794 16.3302 18.9323 15.362L18.9465 15.3659C19.1718 15.4277 19.4383 15.5009 19.7158 14.9C19.8434 14.6237 19.9581 14.0603 20.0519 13.5996L20.0519 13.5996L20.0519 13.5995C20.0986 13.3701 20.1401 13.1661 20.1755 13.0357C20.3625 12.3462 20.1849 11.6819 19.5928 11.8608Z"
            fill="#797A7E" />
    </g>
</svg>
