<svg width="15" height="15" viewBox="0 0 15 15" fill="none" xmlns="http://www.w3.org/2000/svg">
<path fill-rule="evenodd" clip-rule="evenodd" d="M12.3687 0.635711L14.1887 2.45571C14.4921 2.75904 14.4921 3.24904 14.1887 3.55237L13.119 4.62215C12.9237 4.81741 12.6071 4.81741 12.4119 4.62215L10.2023 2.4126C10.007 2.21733 10.007 1.90075 10.2023 1.70549L11.2721 0.635711C11.4199 0.487934 11.6143 0.410156 11.8165 0.410156C12.0187 0.410156 12.2132 0.480156 12.3687 0.635711ZM0.560997 11.3484C0.467229 11.4422 0.414551 11.5694 0.414551 11.702V13.9115C0.414551 14.1877 0.638408 14.4115 0.91455 14.4115H3.12411C3.25671 14.4115 3.38389 14.3588 3.47766 14.2651L11.5799 6.16286C11.7751 5.9676 11.7751 5.65102 11.5799 5.45576L9.37031 3.2462C9.17505 3.05094 8.85847 3.05094 8.66321 3.2462L0.560997 11.3484ZM2.83312 12.7066C2.73935 12.8003 2.61218 12.853 2.47957 12.853H2.47112C2.19498 12.853 1.97112 12.6292 1.97112 12.353V12.3446C1.97112 12.212 2.0238 12.0848 2.11757 11.991L8.66422 5.44436C8.85949 5.24909 9.17607 5.24909 9.37133 5.44436L9.37978 5.4528C9.57504 5.64806 9.57504 5.96465 9.37978 6.15991L2.83312 12.7066Z" fill="white"/>
</svg>
