<svg width="24" height="25" viewBox="0 0 24 25" fill="none" xmlns="http://www.w3.org/2000/svg">
<path d="M17 13.5H7C6 13.5 6 12.5 6 12.5C6 12.5 6 11.5 7 11.5H17C18 11.5 18 12.5 18 12.5C18 12.5 18 13.5 17 13.5Z" fill="#212227" stroke="#212227" stroke-width="0.5"/>
<path d="M19 6.5H5C4 6.5 4 5.5 4 5.5C4 5.5 4 4.5 5 4.5H19C20 4.5 20 5.5 20 5.5C20 5.5 20 6.5 19 6.5Z" fill="#212227" stroke="#212227" stroke-width="0.5"/>
<path d="M15 20.5H9C8 20.5 8 19.5 8 19.5C8 19.5 8 18.5 9 18.5H15C16 18.5 16 19.5 16 19.5C16 19.5 16 20.5 15 20.5Z" fill="#212227" stroke="#212227" stroke-width="0.5"/>
</svg>
