<svg width="31" height="30" viewBox="0 0 31 30" fill="none" xmlns="http://www.w3.org/2000/svg">
<path d="M29.4466 12.9681L24.2901 5.6016C24.0446 5.25783 23.7008 5.06139 23.3079 5.01228C22.915 4.96317 22.5221 5.06139 22.2275 5.30694L20.1649 6.97667C19.8702 7.22222 19.6738 7.56599 19.6247 7.95887C19.6247 8.1062 19.6247 8.20442 19.6247 8.35175C19.4282 8.35175 19.2318 8.40086 19.0353 8.40086C18.888 8.40086 18.7898 8.44997 18.6425 8.44997C17.8567 8.49908 17.0218 8.74463 16.1379 9.0884C15.9414 9.18662 15.745 9.28484 15.5485 9.38306C14.6646 8.94107 13.8297 8.64641 12.9948 8.49908C12.4055 8.40086 11.8653 8.35175 11.3742 8.44997C11.4724 7.90976 11.276 7.32044 10.834 6.97667L8.77138 5.30694C8.47672 5.06139 8.08384 4.96317 7.69096 5.01228C7.29808 5.06139 6.95431 5.25783 6.70876 5.6016L1.55223 12.9681C1.11024 13.6065 1.20846 14.5396 1.84689 15.0798L3.9095 16.7495C4.15505 16.946 4.44971 17.0442 4.79348 17.0442C4.84259 17.0442 4.94081 17.0442 4.98992 17.0442C5.23547 16.9951 5.43191 16.8969 5.62835 16.7495C5.77568 17.1915 6.02123 17.6335 6.36499 18.0755C6.26677 18.5666 6.36499 19.1068 6.61054 19.4997C6.95431 20.089 7.54363 20.4328 8.23117 20.4328C8.42761 20.4328 8.57494 20.3837 8.72227 20.3837C8.77138 20.6783 8.8696 20.9239 9.01693 21.1694C9.3607 21.7587 9.95002 22.1025 10.6376 22.1025C10.9813 22.1025 11.3251 22.0043 11.6689 21.8079C11.718 22.0043 11.8162 22.2007 11.9144 22.3972C12.2091 22.8392 12.6019 23.1829 13.093 23.2812C13.3386 23.3303 13.5841 23.3303 13.7806 23.2812C13.8297 23.5267 13.9279 23.8214 14.0752 24.0669C14.419 24.6562 15.0083 25 15.6959 25C16.0888 25 16.4325 24.9018 16.7272 24.6562L18.1023 23.7231C18.5934 23.3794 18.888 22.8392 18.9371 22.2498C19.2809 22.2007 19.5756 22.0043 19.8211 21.8079C20.0667 21.6114 20.214 21.3168 20.3122 21.0712C20.4595 21.1203 20.6069 21.1694 20.8033 21.1694C21.1471 21.2185 21.4908 21.1203 21.7855 20.973L22.1784 20.7274L22.3748 20.5801L22.5713 20.3346C22.5713 20.2855 22.6204 20.2855 22.6204 20.2363C23.3079 20.9239 24.4374 20.9239 25.1741 20.2855C25.8125 19.6961 26.0089 18.7139 25.6652 17.9282C25.7143 17.6335 25.7634 17.3389 25.7634 17.0442C26.2054 17.2406 26.7456 17.1424 27.1385 16.7986L29.2011 15.1289C29.4958 14.8834 29.6922 14.5396 29.7413 14.1467C29.7904 13.6556 29.6922 13.2627 29.4466 12.9681ZM21.9819 9.72683C21.9328 9.67772 21.8346 9.53039 21.7855 9.43217C21.6873 9.28484 21.6382 9.18662 21.5891 9.13751L20.9997 8.25353C20.9506 8.15531 20.9506 8.00798 21.0488 7.95887L23.1115 6.28913C23.1606 6.24002 23.2588 6.24002 23.3079 6.33824L28.4644 13.7047C28.5136 13.7538 28.5136 13.8029 28.5136 13.8521C28.5136 13.9012 28.4644 13.9503 28.4644 13.9994L26.3036 15.7182C26.2545 15.7182 26.2545 15.7673 26.2054 15.7673C26.2054 15.7673 26.1563 15.7673 26.1072 15.7182L23.2588 11.6421L21.9819 9.72683ZM20.656 15.5709C20.6069 15.4727 20.6069 15.3745 20.6069 15.2762C20.6069 15.0798 20.7051 14.9325 20.8033 14.7851C21.0488 14.5396 21.4417 14.5887 21.6382 14.8834L24.2901 18.2719C24.5357 18.5666 24.4865 19.0086 24.241 19.2541C24.1428 19.3524 23.9463 19.4015 23.799 19.4015C23.6517 19.4015 23.5043 19.3033 23.4061 19.1559L20.656 15.5709ZM10.0482 8.25353L9.01693 9.72683C9.01693 9.72683 8.96782 9.77594 8.96782 9.82505L4.8917 15.6691C4.84259 15.7182 4.84259 15.7182 4.79348 15.7182C4.74437 15.7182 4.74437 15.7182 4.69526 15.7182L2.63264 14.0485C2.53442 13.9994 2.53442 13.8521 2.58353 13.7538L7.74007 6.38735C7.78918 6.33824 7.78918 6.33824 7.83829 6.33824C7.83829 6.33824 7.8874 6.33824 7.8874 6.38735L9.95002 8.05709C10.0973 8.05709 10.0973 8.15531 10.0482 8.25353ZM6.80698 15.178L10.392 10.0706C11.5706 9.48128 12.9457 9.72683 14.1244 10.2179C13.8297 10.4144 13.5841 10.5617 13.535 10.6108C12.7002 11.2001 12.0617 11.8877 11.7671 12.5752C11.4233 13.2627 11.3742 13.9503 11.6689 14.4905C11.9635 14.9816 12.5037 15.2762 13.1422 15.3254C13.7315 15.3745 14.419 15.178 15.1557 14.7851L17.562 13.2627C17.7585 13.1645 18.1023 13.0663 18.2005 13.1154C18.2496 13.1154 18.2987 13.2627 18.2987 13.2627C18.3478 13.4101 18.3969 13.7538 18.7407 14.0976C18.888 14.2449 19.1336 14.4905 19.4773 14.6378C19.4773 14.6869 19.4282 14.736 19.4282 14.7851C18.888 14.6869 18.2987 14.8343 17.8567 15.2271C17.6112 15.4236 17.4638 15.7182 17.3656 15.9638C16.7272 15.7182 16.0396 15.8656 15.4994 16.3075C15.2539 16.0129 14.9101 15.8165 14.5172 15.7182C14.0261 15.62 13.535 15.7182 13.093 16.0129L12.6019 16.3567C12.5528 16.1111 12.4546 15.8656 12.3564 15.6691C12.0617 15.2271 11.6689 14.8834 11.1778 14.7851C10.6867 14.6869 10.1465 14.7851 9.70447 15.0798L7.24897 16.7986C7.19986 16.7986 7.19986 16.8478 7.15075 16.8478C6.75787 16.2093 6.65965 15.6691 6.80698 15.178ZM22.6695 14.0485C22.2766 13.6065 21.7364 13.3118 21.1962 13.3118C20.9506 13.3118 20.7051 13.361 20.4595 13.4592C19.6738 13.361 19.5756 12.9681 19.5756 12.9681V12.919C19.4282 12.2805 19.0353 11.9859 18.7407 11.8386C17.9549 11.4948 17.0218 11.9859 16.9236 12.035L14.5663 13.5574C14.0752 13.8521 13.5841 13.9994 13.2404 13.9503C13.0439 13.9503 12.8966 13.9012 12.8475 13.8029C12.7984 13.7047 12.7984 13.4592 12.9457 13.1154C13.1913 12.6243 13.6824 12.1332 14.3208 11.6421L14.3699 11.593C14.6155 11.3966 15.4994 10.7581 16.6781 10.267C17.8076 9.77594 19.3791 9.38306 20.656 10.0215L24.241 15.1289C24.3392 15.4727 24.4374 15.8165 24.4374 16.1602L22.6695 14.0485ZM7.74007 18.8122C7.64185 18.6648 7.59274 18.4684 7.64185 18.2719C7.69096 18.0755 7.78918 17.9282 7.93651 17.83L10.392 16.1111C10.4902 16.062 10.5884 16.0129 10.6867 16.0129C10.8831 16.0129 11.0795 16.1111 11.1778 16.3075C11.3742 16.6513 11.276 17.0933 10.9813 17.2897L8.52583 19.0086C8.3785 19.1068 8.23117 19.1068 8.08384 19.1068C7.93651 19.0577 7.83829 18.9595 7.74007 18.8122ZM10.1465 20.4819C9.95002 20.1381 10.0482 19.6961 10.3429 19.4997L13.8297 17.0933C13.9279 17.0442 14.0261 16.9951 14.1244 16.9951C14.1735 16.9951 14.2226 16.9951 14.2226 16.9951C14.3699 17.0442 14.5172 17.1424 14.6155 17.2897C14.8119 17.6335 14.7137 18.0755 14.419 18.2719L12.4546 19.5979C12.4055 19.647 12.3564 19.6961 12.2582 19.7452L10.9322 20.6783C10.7849 20.7766 10.6376 20.7766 10.4902 20.7766C10.3429 20.7274 10.1956 20.6292 10.1465 20.4819ZM12.8966 21.1203C12.9457 20.973 12.9948 20.8748 13.093 20.7766L14.6646 19.6961C14.7628 19.647 14.861 19.647 15.0083 19.6961C15.1557 19.7452 15.303 19.8435 15.4012 19.9908C15.4994 20.1381 15.5485 20.3346 15.4994 20.531C15.4503 20.6783 15.4012 20.7766 15.3521 20.8748L13.8788 21.9061C13.7315 22.0043 13.5841 22.0043 13.4368 22.0043C13.2895 21.9552 13.1422 21.857 13.0439 21.7096C12.8966 21.5132 12.8475 21.3168 12.8966 21.1203ZM15.1557 23.3303C15.0083 23.0356 15.0083 22.6918 15.2539 22.4463L16.7272 21.415C16.8745 21.3168 17.0218 21.3168 17.1692 21.3168C17.3165 21.3659 17.4638 21.4641 17.562 21.6114C17.7585 21.9552 17.6603 22.3972 17.3656 22.5936L15.9905 23.5758C15.8432 23.674 15.6959 23.674 15.5485 23.674C15.4012 23.6249 15.2539 23.5267 15.1557 23.3303ZM17.6603 20.1381L16.187 18.3211C16.0888 18.1737 16.0396 18.0264 16.0396 17.8791C16.0396 17.6826 16.1379 17.4862 16.2852 17.3389C16.3834 17.2406 16.5307 17.1915 16.7272 17.1915C16.8745 17.1915 17.0218 17.2897 17.1201 17.4371L19.0353 19.8435C19.1336 19.9908 19.1827 20.1872 19.1827 20.3837C19.1827 20.5801 19.0845 20.7274 18.9371 20.8748C18.8389 20.973 18.7407 21.0221 18.5934 21.0221C18.3969 20.531 18.0531 20.2855 17.6603 20.1381ZM18.6916 16.1602C18.7898 16.062 18.9371 16.0129 19.0845 16.0129C19.2809 16.0129 19.4282 16.1111 19.5264 16.2584L21.5399 18.9104C21.5891 19.0086 21.5891 19.1068 21.5891 19.205C21.5891 19.4015 21.4908 19.5488 21.3435 19.6961C21.2453 19.7944 21.098 19.8435 20.9015 19.8435C20.7542 19.8435 20.6069 19.7452 20.5086 19.5979L18.5934 17.1915C18.4951 17.0442 18.446 16.8478 18.446 16.6513C18.4951 16.4549 18.5934 16.3076 18.6916 16.1602Z" fill="white"/>
</svg>
