<svg width="31" height="30" viewBox="0 0 31 30" fill="none" xmlns="http://www.w3.org/2000/svg">
<path d="M12.5765 12.3718C12.8127 11.7004 13.2789 11.1342 13.8926 10.7736C14.5062 10.4129 15.2276 10.2811 15.9292 10.4014C16.6307 10.5218 17.267 10.8865 17.7254 11.431C18.1837 11.9755 18.4347 12.6647 18.4335 13.3765C18.4335 15.3857 15.4196 16.3904 15.4196 16.3904M15.5 20.4089H15.51M25.5464 15.3857C25.5464 20.9342 21.0484 25.4321 15.5 25.4321C9.95153 25.4321 5.45361 20.9342 5.45361 15.3857C5.45361 9.83727 9.95153 5.33936 15.5 5.33936C21.0484 5.33936 25.5464 9.83727 25.5464 15.3857Z" stroke="white" stroke-width="2" stroke-linecap="round" stroke-linejoin="round"/>
</svg>
