<svg width="31" height="30" viewBox="0 0 31 30" fill="none" xmlns="http://www.w3.org/2000/svg">
<path d="M25.0866 12.7566C24.8216 12.7566 24.6075 12.9713 24.6075 13.2358V20.3871L19.7795 24.4839V17.6042C19.7795 17.3397 19.5653 17.1251 19.3003 17.1251C19.0354 17.1251 18.8212 17.3397 18.8212 17.6042V25.0402H12.5892V9.88785C12.5892 9.88117 12.5854 9.87592 12.5854 9.86914C12.5845 9.83467 12.5744 9.80249 12.5658 9.76898C12.5581 9.74119 12.5548 9.71293 12.5423 9.68753C12.5313 9.66261 12.5126 9.64151 12.4953 9.6185C12.4756 9.58976 12.457 9.56102 12.4316 9.53753C12.4268 9.53323 12.4249 9.52703 12.4197 9.52263L6.63341 4.61272C6.49114 4.49193 6.29082 4.4651 6.12268 4.54321C5.9531 4.62179 5.84473 4.79137 5.84473 4.97832V20.6093C5.84473 20.7502 5.9065 20.8834 6.01335 20.9749L11.8006 25.8848C11.8231 25.9045 11.8504 25.9141 11.8753 25.9285C11.8959 25.9404 11.9136 25.9548 11.9361 25.9634C11.9922 25.9855 12.0511 25.9988 12.1101 25.9988H19.3003C19.3602 25.9988 19.4192 25.986 19.4753 25.9634C19.4969 25.9548 19.5145 25.9404 19.5351 25.929C19.5605 25.9141 19.5874 25.904 19.6109 25.8848L25.3971 20.9745C25.504 20.8835 25.5657 20.7497 25.5657 20.6088V13.2358C25.5657 12.9708 25.3516 12.7566 25.0866 12.7566ZM6.8029 6.01297L11.6309 10.1098V24.4839L6.8029 20.3871V6.01297Z" fill="white" stroke="white" stroke-width="0.5"/>
<path d="M19.475 10.698C20.5828 10.698 21.4851 9.79671 21.4851 8.68835C21.4851 7.58056 20.5829 6.6792 19.475 6.6792C18.3672 6.6792 17.4658 7.58046 17.4658 8.68835C17.4658 9.79671 18.3672 10.698 19.475 10.698ZM19.475 7.63756C20.0552 7.63756 20.5267 8.10905 20.5267 8.68835C20.5267 9.26812 20.0552 9.73961 19.475 9.73961C18.8957 9.73961 18.4242 9.26812 18.4242 8.68835C18.4242 8.10905 18.8957 7.63756 19.475 7.63756Z" fill="white" stroke="white" stroke-width="0.5"/>
<path d="M19.1376 14.9775C19.2311 15.0709 19.3537 15.1178 19.4764 15.1178C19.599 15.1178 19.7216 15.0708 19.8151 14.9775L22.7911 12.0024C24.6187 10.1744 24.6187 7.2003 22.7911 5.37333C21.9057 4.48782 20.7284 4 19.4764 4C18.2243 4 17.047 4.48782 16.1625 5.37276C15.2761 6.25826 14.7888 7.43509 14.7888 8.68706C14.7888 9.93903 15.2766 11.1164 16.1625 12.0018L19.1376 14.9775ZM16.8401 6.04982C17.544 5.34545 18.4797 4.95779 19.4764 4.95779C20.472 4.95779 21.4088 5.34592 22.1136 6.0503C23.5678 7.50403 23.5678 9.87009 22.1136 11.3244L19.4764 13.9607L16.8401 11.3244C16.1343 10.6195 15.7471 9.68275 15.7471 8.68715C15.7471 7.69155 16.1343 6.75468 16.8401 6.04982Z" fill="white" stroke="white" stroke-width="0.5"/>
</svg>
