<svg width="21" height="20" viewBox="0 0 21 20" fill="none" xmlns="http://www.w3.org/2000/svg">
<path d="M10.283 6.86889C9.98115 6.86889 9.68608 6.78227 9.43511 6.61998C9.18413 6.45769 8.98852 6.22703 8.87301 5.95716C8.7575 5.68728 8.72727 5.39032 8.78616 5.10383C8.84505 4.81733 8.9904 4.55417 9.20384 4.34762C9.41727 4.14107 9.68921 4.00041 9.98525 3.94342C10.2813 3.88643 10.5882 3.91568 10.867 4.02746C11.1459 4.13925 11.3842 4.32855 11.5519 4.57143C11.7196 4.81431 11.8091 5.09986 11.8091 5.39196C11.8091 5.78367 11.6484 6.15933 11.3621 6.4363C11.0759 6.71328 10.6878 6.86889 10.283 6.86889Z" fill="#C5FF21"/>
<path d="M10.2828 19.4222C8.32081 19.4222 6.40287 18.8591 4.77154 17.8043C3.1402 16.7494 1.86873 15.2501 1.11791 13.4959C0.367091 11.7418 0.170642 9.81152 0.553407 7.9493C0.936173 6.08709 1.88096 4.37653 3.2683 3.03395C4.65563 1.69136 6.42321 0.777052 8.3475 0.406634C10.2718 0.0362155 12.2664 0.226327 14.079 0.952929C15.8917 1.67953 17.4409 2.90999 18.531 4.4887C19.621 6.06741 20.2028 7.92347 20.2028 9.82217C20.2028 12.3682 19.1577 14.81 17.2973 16.6104C15.4369 18.4107 12.9137 19.4222 10.2828 19.4222ZM10.2828 1.6991C8.62265 1.6991 6.99979 2.17551 5.61943 3.06808C4.23906 3.96066 3.1632 5.22931 2.52789 6.7136C1.89258 8.1979 1.72636 9.83118 2.05024 11.4069C2.37411 12.9826 3.17355 14.43 4.34745 15.5661C5.52135 16.7021 7.01699 17.4757 8.64524 17.7892C10.2735 18.1026 11.9612 17.9417 13.495 17.3269C15.0288 16.7121 16.3397 15.6709 17.262 14.3351C18.1843 12.9993 18.6766 11.4288 18.6766 9.82217C18.6766 7.6678 17.7923 5.60166 16.2181 4.07829C14.644 2.55492 12.509 1.6991 10.2828 1.6991Z" fill="#C5FF21"/>
<path d="M10.283 15.7303C9.87823 15.7303 9.49005 15.5747 9.20384 15.2977C8.91763 15.0208 8.75684 14.6451 8.75684 14.2534V9.82263C8.75684 9.43092 8.91763 9.05526 9.20384 8.77828C9.49005 8.50131 9.87823 8.3457 10.283 8.3457C10.6878 8.3457 11.0759 8.50131 11.3621 8.77828C11.6484 9.05526 11.8091 9.43092 11.8091 9.82263V14.2534C11.8091 14.6451 11.6484 15.0208 11.3621 15.2977C11.0759 15.5747 10.6878 15.7303 10.283 15.7303Z" fill="#C5FF21"/>
</svg>
