<svg width="122" height="29" viewBox="0 0 122 29" fill="none" xmlns="http://www.w3.org/2000/svg">
<path d="M38.6621 10.6328C38.6621 10.4043 38.5537 10.2051 38.3369 10.0352C38.1201 9.86523 37.8389 9.72461 37.4932 9.61328C37.1533 9.50195 36.7725 9.38477 36.3506 9.26172C35.9346 9.13281 35.5186 8.97168 35.1025 8.77832C34.6924 8.58496 34.3145 8.35352 33.9688 8.08398C33.6289 7.81445 33.3506 7.45117 33.1338 6.99414C32.917 6.53711 32.8086 6.00977 32.8086 5.41211C32.8086 4.38086 33.2539 3.47852 34.1445 2.70508C35.041 1.92578 36.1865 1.53613 37.5811 1.53613C38.1553 1.53613 38.6973 1.60059 39.207 1.72949C39.7168 1.85254 40.1328 2.00195 40.4551 2.17773C40.7832 2.35352 41.0703 2.5293 41.3164 2.70508C41.5625 2.875 41.7324 3.02734 41.8262 3.16211L41.9932 3.33789L40.0068 5.41211C39.9482 5.3418 39.8604 5.25391 39.7432 5.14844C39.6318 5.03711 39.3945 4.8877 39.0312 4.7002C38.6738 4.5127 38.3105 4.41895 37.9414 4.41895C37.5547 4.41895 37.2324 4.52734 36.9746 4.74414C36.7168 4.96094 36.5879 5.21289 36.5879 5.5C36.5879 5.72852 36.6963 5.92773 36.9131 6.09766C37.1299 6.26172 37.4082 6.40234 37.748 6.51953C38.0938 6.63086 38.4717 6.75098 38.8818 6.87988C39.2979 7.00293 39.7139 7.16113 40.1299 7.35449C40.5518 7.54785 40.9326 7.7793 41.2725 8.04883C41.6182 8.31836 41.8994 8.68164 42.1162 9.13867C42.333 9.5957 42.4414 10.123 42.4414 10.7207C42.4414 11.8867 41.9814 12.8682 41.0615 13.665C40.1416 14.4619 38.9199 14.8604 37.3965 14.8604C36.7754 14.8604 36.1748 14.7842 35.5947 14.6318C35.0205 14.4854 34.5459 14.3066 34.1709 14.0957C33.8018 13.8848 33.4736 13.6738 33.1865 13.4629C32.8994 13.252 32.6885 13.0703 32.5537 12.918L32.3604 12.6982L34.3379 10.6328C34.3613 10.668 34.4023 10.7148 34.4609 10.7734C34.5254 10.832 34.6455 10.9404 34.8213 11.0986C35.0029 11.2568 35.1934 11.3975 35.3926 11.5205C35.5918 11.6377 35.8408 11.7432 36.1396 11.8369C36.4385 11.9307 36.7373 11.9775 37.0361 11.9775C37.5166 11.9775 37.9062 11.8457 38.2051 11.582C38.5098 11.3184 38.6621 11.002 38.6621 10.6328ZM51.3447 1.89648H55.0361L50.5361 10V14.5H47.1172V10L42.6172 1.89648H46.3086L48.8311 6.75684L51.3447 1.89648ZM64.8535 1.89648H68.2725V14.5H65.3193L59.9053 7.47754V14.5H56.4863V1.89648H59.457L64.8535 8.91895V1.89648ZM74.583 11.6172H81.0605V14.5H71.1641V1.89648H80.8848V4.7793H74.583V6.75684H79.4434V9.46387H74.583V11.6172ZM83.2227 14.5V1.89648H89.1641C90.4941 1.89648 91.5898 2.3125 92.4512 3.14453C93.3184 3.9707 93.752 4.99609 93.752 6.2207C93.752 6.72461 93.6758 7.19629 93.5234 7.63574C93.377 8.06934 93.1982 8.42383 92.9873 8.69922C92.7764 8.96875 92.5654 9.2002 92.3545 9.39355C92.1436 9.58105 91.9678 9.70996 91.8271 9.78027L91.5898 9.91211L94.2002 14.5H90.6055L88.4434 10.5361H86.6416V14.5H83.2227ZM89.9551 7.11719C90.207 6.87695 90.333 6.57812 90.333 6.2207C90.333 5.85742 90.207 5.55859 89.9551 5.32422C89.7031 5.08398 89.3779 4.96387 88.9795 4.96387H86.6416V7.47754H88.9795C89.3779 7.47754 89.7031 7.35742 89.9551 7.11719ZM102.479 14.8604C100.522 14.8604 98.8613 14.207 97.4961 12.9004C96.1367 11.5879 95.457 10.0205 95.457 8.19824C95.457 6.37598 96.1367 4.81152 97.4961 3.50488C98.8613 2.19238 100.522 1.53613 102.479 1.53613C103.153 1.53613 103.795 1.62402 104.404 1.7998C105.014 1.97559 105.515 2.18652 105.907 2.43262C106.306 2.67871 106.651 2.9248 106.944 3.1709C107.243 3.41699 107.457 3.62793 107.586 3.80371L107.788 4.05859L105.714 6.2207C105.679 6.17383 105.632 6.11523 105.573 6.04492C105.515 5.96875 105.38 5.83984 105.169 5.6582C104.958 5.4707 104.738 5.30664 104.51 5.16602C104.281 5.01953 103.979 4.89063 103.604 4.7793C103.235 4.66211 102.86 4.60352 102.479 4.60352C101.448 4.60352 100.59 4.94629 99.9043 5.63184C99.2188 6.31152 98.876 7.16699 98.876 8.19824C98.876 9.22949 99.2188 10.0879 99.9043 10.7734C100.59 11.459 101.448 11.8018 102.479 11.8018C102.913 11.8018 103.309 11.7373 103.666 11.6084C104.023 11.4736 104.275 11.333 104.422 11.1865L104.633 10.9932V9.63965H102.655V7.47754H108.061V12.3379C108.014 12.4082 107.935 12.502 107.823 12.6191C107.712 12.7305 107.48 12.9326 107.129 13.2256C106.777 13.5127 106.399 13.7676 105.995 13.9902C105.591 14.2129 105.072 14.4121 104.439 14.5879C103.807 14.7695 103.153 14.8604 102.479 14.8604ZM117.667 1.89648H121.358L116.858 10V14.5H113.439V10L108.939 1.89648H112.631L115.153 6.75684L117.667 1.89648ZM36.8604 25.6172H43.3379V28.5H33.4414V15.8965H43.1621V18.7793H36.8604V20.7568H41.7207V23.4639H36.8604V25.6172ZM48.7344 28.5L44.2344 15.8965H47.9258L50.6328 24.5361L53.3311 15.8965H57.0225L52.5225 28.5H48.7344ZM62.0674 25.6172H68.5449V28.5H58.6484V15.8965H68.3691V18.7793H62.0674V20.7568H66.9277V23.4639H62.0674V25.6172ZM79.0742 15.8965H82.4932V28.5H79.54L74.126 21.4775V28.5H70.707V15.8965H73.6777L79.0742 22.9189V15.8965ZM84.3037 15.8965H94.7451V18.9639H91.2295V28.5H87.8105V18.9639H84.3037V15.8965ZM102.137 24.6328C102.137 24.4043 102.028 24.2051 101.812 24.0352C101.595 23.8652 101.313 23.7246 100.968 23.6133C100.628 23.502 100.247 23.3848 99.8252 23.2617C99.4092 23.1328 98.9932 22.9717 98.5771 22.7783C98.167 22.585 97.7891 22.3535 97.4434 22.084C97.1035 21.8145 96.8252 21.4512 96.6084 20.9941C96.3916 20.5371 96.2832 20.0098 96.2832 19.4121C96.2832 18.3809 96.7285 17.4785 97.6191 16.7051C98.5156 15.9258 99.6611 15.5361 101.056 15.5361C101.63 15.5361 102.172 15.6006 102.682 15.7295C103.191 15.8525 103.607 16.002 103.93 16.1777C104.258 16.3535 104.545 16.5293 104.791 16.7051C105.037 16.875 105.207 17.0273 105.301 17.1621L105.468 17.3379L103.481 19.4121C103.423 19.3418 103.335 19.2539 103.218 19.1484C103.106 19.0371 102.869 18.8877 102.506 18.7002C102.148 18.5127 101.785 18.4189 101.416 18.4189C101.029 18.4189 100.707 18.5273 100.449 18.7441C100.191 18.9609 100.062 19.2129 100.062 19.5C100.062 19.7285 100.171 19.9277 100.388 20.0977C100.604 20.2617 100.883 20.4023 101.223 20.5195C101.568 20.6309 101.946 20.751 102.356 20.8799C102.772 21.0029 103.188 21.1611 103.604 21.3545C104.026 21.5479 104.407 21.7793 104.747 22.0488C105.093 22.3184 105.374 22.6816 105.591 23.1387C105.808 23.5957 105.916 24.123 105.916 24.7207C105.916 25.8867 105.456 26.8682 104.536 27.665C103.616 28.4619 102.395 28.8604 100.871 28.8604C100.25 28.8604 99.6494 28.7842 99.0693 28.6318C98.4951 28.4854 98.0205 28.3066 97.6455 28.0957C97.2764 27.8848 96.9482 27.6738 96.6611 27.4629C96.374 27.252 96.1631 27.0703 96.0283 26.918L95.835 26.6982L97.8125 24.6328C97.8359 24.668 97.877 24.7148 97.9355 24.7734C98 24.832 98.1201 24.9404 98.2959 25.0986C98.4775 25.2568 98.668 25.3975 98.8672 25.5205C99.0664 25.6377 99.3154 25.7432 99.6143 25.8369C99.9131 25.9307 100.212 25.9775 100.511 25.9775C100.991 25.9775 101.381 25.8457 101.68 25.582C101.984 25.3184 102.137 25.002 102.137 24.6328Z" fill="#212227"/>
<path d="M17.0697 17.6455L14.2248 15.0078L17.0697 12.362V7.09473L8.53491 15.0078L17.0697 22.9208V17.6455Z" fill="#212227"/>
<path d="M0 0.964844V28.9648H28V0.964844H0ZM24.0012 24.9661H3.99877V4.96362H24.0012V24.9661Z" fill="#212227"/>
</svg>
