<svg width="21" height="21" viewBox="0 0 21 21" fill="none" xmlns="http://www.w3.org/2000/svg">
<rect width="20" height="20" transform="translate(0.406738 0.75)" fill="#333333"/>
<path d="M15.3897 9.5828C15.7444 6.85915 12.9048 4.1355 10.4199 4.1355C7.93497 4.1355 5.09492 6.85915 5.45019 9.5828C5.80546 12.3065 10.42 17.3647 10.42 17.3647C10.42 17.3647 15.035 12.3065 15.3897 9.5828ZM6.87012 9.5828C6.51514 7.63734 8.64494 5.69187 10.4199 5.69187C12.1948 5.69187 14.3245 7.63734 13.9698 9.5828C13.6151 11.5283 10.42 15.4192 10.42 15.4192C10.42 15.4192 7.22511 11.5283 6.87012 9.5828Z" fill="#C5FF21"/>
<path d="M12.0669 9.0769C12.0669 8.15467 11.329 7.41675 10.4067 7.41675C9.48443 7.41675 8.74658 8.1544 8.74658 9.0769C8.74658 9.99941 9.48443 10.7373 10.4067 10.7371C11.329 10.7368 12.0669 9.99914 12.0669 9.0769Z" fill="#C5FF21"/>
</svg>
