<svg width="300" height="22" viewBox="0 0 300 22" fill="none" xmlns="http://www.w3.org/2000/svg">
<path d="M29.6826 10.272H23.9295V7.13911H31.6582V5.56055H22.5835V7.13911V16.4891H29.6609C31.2457 16.4891 32.4832 15.1048 32.4832 13.3319C32.4832 11.8748 31.4411 10.272 29.6826 10.272ZM29.6609 14.9105H23.9078V11.7534H29.6609C30.4425 11.7534 31.0721 12.4577 31.0721 13.3319C31.0721 14.2062 30.4425 14.9105 29.6609 14.9105Z" fill="white"/>
<path d="M21.6481 11.0237C21.6481 12.5294 21.1054 13.8894 20.2153 14.8851C19.3252 15.8808 18.1094 16.488 16.7634 16.488H11.0537V14.9094H16.7634C18.4568 14.9094 19.8679 13.5494 20.1719 11.7523H12.682V10.2466H20.1719C19.8462 8.47372 18.4568 7.11373 16.7634 7.11373H11.0537V5.53516H16.7634C19.4554 5.55944 21.6481 8.0123 21.6481 11.0237Z" fill="white"/>
<path d="M9.34076 10.876C9.81838 10.3175 10.1223 9.54034 10.1223 8.69034C10.1223 6.94177 8.86314 5.5332 7.32174 5.5332H0.743652V16.4617H7.56055C9.12366 16.4617 10.3828 15.0532 10.3828 13.3046C10.3828 12.3332 9.97035 11.4589 9.34076 10.876ZM7.30003 7.13606C8.05988 7.13606 8.68947 7.84034 8.68947 8.69034C8.68947 9.54034 8.05988 10.2446 7.30003 10.2446H2.08966V7.13606H7.30003ZM7.56055 14.9075H2.08966V11.7503H7.56055C8.34211 11.7503 8.97169 12.4546 8.97169 13.3289C8.97169 14.2032 8.34211 14.9075 7.56055 14.9075Z" fill="white"/>
<path d="M39.4536 16.4852H40.9081V14.7854H51.6537V5.5332H39.4536V16.4852ZM40.9081 7.13594H50.1992V13.1826H40.9081V7.13594Z" fill="white"/>
<path d="M53.0432 14.7855H61.3142V16.4855H62.747V14.7855H71.018V5.5332H53.0215V14.7855H53.0432ZM62.7687 7.13598H69.607V13.1828H62.7687V7.13598ZM54.476 7.13598H61.3142V13.1828H54.476V7.13598Z" fill="white"/>
<path d="M36.6517 3.88281H35.1973V18.186H36.6517V3.88281Z" fill="white"/>
<path opacity="0.75" d="M87.0181 1.03516H86.0181V21.0352H87.0181V1.03516Z" fill="white"/>
<path d="M122.651 1.06911V16.3685C122.65 17.5966 122.162 18.774 121.293 19.6424C120.425 20.5108 119.247 20.9992 118.019 21.0003H107.352C106.124 20.9992 104.946 20.5108 104.078 19.6424C103.21 18.774 102.721 17.5966 102.72 16.3685V5.70095C102.721 4.47286 103.21 3.2954 104.078 2.42701C104.946 1.55862 106.124 1.07026 107.352 1.06911H122.651ZM123.353 0.367188H107.352C105.937 0.367188 104.581 0.929136 103.58 1.92941C102.58 2.92969 102.018 4.28635 102.018 5.70095V16.3685C102.018 17.7831 102.58 19.1397 103.58 20.14C104.581 21.1403 105.937 21.7022 107.352 21.7022H118.019C119.434 21.7022 120.791 21.1403 121.791 20.14C122.791 19.1397 123.353 17.7831 123.353 16.3685V0.367188Z" fill="white"/>
<path d="M119.644 8.36706H117.084L114.644 11.0358V5.70261H112.669V7.00235C112.605 6.91858 112.536 6.83627 112.461 6.7554C112.057 6.35825 111.574 6.05016 111.043 5.85093C110.513 5.6517 109.946 5.56576 109.38 5.59863C108.837 5.57362 108.296 5.6753 107.799 5.89561C107.302 6.11593 106.863 6.44884 106.517 6.86804C106.237 7.21094 106.034 7.61014 105.921 8.0385C105.809 8.46686 105.791 8.91434 105.867 9.35053C106.326 11.4041 108.232 11.7334 109.632 11.9153C110.736 12.0583 111.798 12.2619 111.768 13.2454C111.737 14.2289 110.585 14.5105 109.814 14.5105C107.842 14.5105 107.777 13.0548 107.777 13.0548H105.672C105.708 13.8539 106.014 14.6172 106.538 15.221C107.275 16.0485 108.38 16.4644 109.822 16.4644C110.86 16.4879 111.87 16.132 112.664 15.4636V16.3301H114.64V13.8389L115.342 13.0764L117.339 16.3561H119.64L116.746 11.5514L119.644 8.36706ZM112.669 10.7672C111.252 9.60181 108.176 10.334 107.847 8.88262C107.673 8.12011 108.432 7.44425 109.419 7.44425C110.286 7.44425 111.191 7.64355 111.529 8.88262H112.669V10.7672Z" fill="white"/>
<path d="M129.093 10.6253C129.184 10.4426 129.307 10.2781 129.457 10.1401C129.59 10.0251 129.736 9.92482 129.89 9.84118C130.03 9.78059 130.175 9.73274 130.324 9.69821C130.44 9.67738 130.557 9.66579 130.675 9.66355C130.883 9.65875 131.092 9.68207 131.294 9.73287C131.446 9.77543 131.592 9.83808 131.727 9.91916C131.846 9.98826 131.954 10.0744 132.048 10.1748C132.126 10.2692 132.197 10.3691 132.26 10.4737C132.313 10.5691 132.356 10.6691 132.39 10.7727L132.468 11.0369H134.128C134.115 10.8419 134.081 10.6487 134.028 10.4607C133.961 10.2479 133.877 10.0407 133.777 9.84118C133.652 9.62823 133.507 9.42798 133.343 9.2433C133.155 9.03873 132.938 8.86349 132.698 8.72341C132.426 8.56537 132.135 8.44306 131.831 8.35948C131.455 8.26411 131.067 8.21895 130.679 8.22518C130.379 8.22618 130.079 8.25959 129.786 8.32482C129.493 8.40235 129.209 8.51432 128.942 8.65842C128.668 8.80296 128.418 8.98851 128.201 9.20864C127.958 9.44383 127.749 9.71221 127.581 10.0058C127.405 10.3419 127.275 10.7005 127.196 11.0716C127.094 11.506 127.046 11.9512 127.053 12.3973C127.042 12.9841 127.124 13.569 127.295 14.1303C127.446 14.6097 127.691 15.0543 128.014 15.4387C128.329 15.8017 128.723 16.0864 129.167 16.2705C130.043 16.6186 131.01 16.6628 131.914 16.3962C132.279 16.2796 132.62 16.0959 132.919 15.8546C133.228 15.6024 133.487 15.2937 133.681 14.9448C133.902 14.541 134.049 14.1008 134.115 13.6451H132.468C132.434 13.7664 132.377 13.9223 132.312 14.0783C132.247 14.256 132.15 14.4204 132.026 14.5635C131.878 14.7312 131.696 14.8668 131.493 14.9621C131.219 15.076 130.924 15.1292 130.627 15.1181C130.347 15.1224 130.07 15.0569 129.821 14.9275C129.574 14.8059 129.361 14.6242 129.202 14.3989C129.021 14.1362 128.89 13.8424 128.816 13.5324C128.721 13.1557 128.676 12.7683 128.682 12.38C128.677 12.0351 128.71 11.6907 128.781 11.3532C128.848 11.0963 128.953 10.8509 129.093 10.6253Z" fill="white"/>
<path d="M140.592 10.4863H138.555L136.354 12.7221V10.4863H134.829V16.3748H136.354V14.516L136.974 13.8833L138.703 16.3748H140.696L138.161 12.9344L140.592 10.4863Z" fill="white"/>
<path d="M145.639 11.1999C145.376 10.9201 145.055 10.7012 144.698 10.5587C144.293 10.397 143.86 10.3174 143.424 10.3247C142.996 10.3186 142.57 10.3981 142.172 10.5587C141.814 10.7022 141.49 10.9209 141.223 11.1999C140.951 11.4828 140.747 11.8235 140.625 12.1965C140.342 13.0059 140.342 13.8873 140.625 14.6967C140.747 15.0697 140.951 15.4104 141.223 15.6932C141.494 15.9682 141.816 16.1862 142.172 16.3345C142.57 16.495 142.996 16.5746 143.424 16.5685C143.86 16.5757 144.293 16.4962 144.698 16.3345C145.052 16.1872 145.372 15.969 145.639 15.6932C145.899 15.4019 146.102 15.0637 146.237 14.6967C146.502 13.8845 146.502 13.0087 146.237 12.1965C146.101 11.8299 145.898 11.4919 145.639 11.1999ZM144.772 14.1204C144.73 14.3151 144.652 14.5003 144.542 14.6663C144.432 14.8353 144.284 14.9763 144.109 15.078C143.898 15.1862 143.662 15.2384 143.424 15.2296C143.192 15.2465 142.958 15.2017 142.749 15.0996C142.571 14.9932 142.422 14.8443 142.315 14.6663C142.193 14.4897 142.11 14.2887 142.073 14.077C142.025 13.8636 141.998 13.6458 141.995 13.4271C141.999 13.2027 142.025 12.9792 142.073 12.7598C142.112 12.5515 142.195 12.3538 142.315 12.1792C142.423 12.0023 142.572 11.8537 142.749 11.7459C142.96 11.6498 143.193 11.6109 143.424 11.6332C143.643 11.6134 143.864 11.6542 144.061 11.7513C144.258 11.8484 144.425 11.9979 144.542 12.1835C144.655 12.3637 144.733 12.5637 144.772 12.7728C144.864 13.2172 144.864 13.6759 144.772 14.1204Z" fill="white"/>
<path d="M147.86 12.7135C147.86 13.2334 147.825 13.6537 147.795 13.9831C147.768 14.246 147.716 14.5058 147.639 14.7587C147.6 14.9047 147.519 15.0359 147.405 15.1356C147.32 15.2104 147.21 15.2493 147.097 15.244C147.005 15.2518 146.912 15.2518 146.82 15.244L146.621 15.179V16.4789C146.724 16.5215 146.831 16.552 146.941 16.5698C147.076 16.5698 147.219 16.5915 147.375 16.5915C147.693 16.605 148.008 16.5236 148.28 16.3575C148.527 16.176 148.721 15.9323 148.843 15.6513C148.994 15.279 149.094 14.8886 149.142 14.49C149.199 14.0221 149.242 13.4804 149.268 12.8608L149.29 11.7646H151.105V16.3749H152.617V10.4863H147.903L147.86 12.7135Z" fill="white"/>
<path d="M159.521 10.4863H157.484L155.283 12.7221V10.4863H153.758V16.3748H155.283V14.516L155.903 13.8833L157.631 16.3748H159.62L157.085 12.9344L159.521 10.4863Z" fill="white"/>
<path d="M164.559 11.1999C164.297 10.9182 163.976 10.699 163.618 10.5587C163.215 10.397 162.783 10.3174 162.349 10.3247C161.92 10.3182 161.494 10.3978 161.097 10.5587C160.737 10.7032 160.413 10.9217 160.143 11.1999C159.875 11.4853 159.671 11.8252 159.545 12.1965C159.268 13.0068 159.268 13.8863 159.545 14.6967C159.67 15.0685 159.874 15.4087 160.143 15.6932C160.416 15.9673 160.74 16.1852 161.097 16.3345C161.494 16.4954 161.92 16.5749 162.349 16.5685C162.783 16.5757 163.215 16.4962 163.618 16.3345C163.974 16.1894 164.294 15.9709 164.559 15.6932C164.822 15.4041 165.026 15.0653 165.157 14.6967C165.422 13.8845 165.422 13.0087 165.157 12.1965C165.025 11.8283 164.821 11.4897 164.559 11.1999ZM163.692 14.1204C163.654 14.3256 163.576 14.5215 163.462 14.6967C163.352 14.8657 163.204 15.0066 163.029 15.1083C162.818 15.2165 162.582 15.2687 162.344 15.2599C162.113 15.2644 161.885 15.2092 161.682 15.0996C161.503 14.9936 161.354 14.8446 161.248 14.6663C161.126 14.4897 161.043 14.2887 161.006 14.077C160.955 13.864 160.929 13.646 160.928 13.4271C160.93 13.2025 160.956 12.9788 161.006 12.7598C161.045 12.55 161.127 12.3507 161.248 12.1749C161.356 11.998 161.505 11.8494 161.682 11.7416C161.887 11.6342 162.117 11.582 162.349 11.5899C162.568 11.57 162.788 11.6109 162.985 11.708C163.182 11.805 163.349 11.9546 163.467 12.1402C163.58 12.3204 163.658 12.5204 163.696 12.7295C163.789 13.1739 163.789 13.6326 163.696 14.077L163.692 14.1204Z" fill="white"/>
<path d="M170.478 13.2207C170.573 13.1758 170.663 13.1206 170.747 13.0561C170.834 12.9926 170.909 12.9132 170.968 12.8221C171.041 12.7221 171.094 12.6088 171.124 12.4885C171.164 12.3477 171.181 12.2014 171.176 12.0552C171.188 11.791 171.131 11.5283 171.011 11.2926C170.903 11.0973 170.746 10.9331 170.556 10.816C170.349 10.7018 170.125 10.6199 169.893 10.5733C169.634 10.5256 169.372 10.5024 169.109 10.504H166.076V16.3751H169.377C169.663 16.3791 169.948 16.3337 170.218 16.2408C170.456 16.163 170.675 16.0344 170.859 15.8638C171.036 15.7056 171.175 15.5103 171.267 15.2919C171.36 15.0517 171.406 14.7956 171.401 14.5379C171.408 14.2475 171.327 13.9617 171.167 13.719C171.003 13.4769 170.759 13.3004 170.478 13.2207ZM167.592 11.5699H168.81C168.947 11.5652 169.084 11.5812 169.217 11.6175C169.309 11.6412 169.396 11.6824 169.473 11.7389C169.535 11.7878 169.585 11.8519 169.616 11.9252C169.647 12.002 169.662 12.0848 169.659 12.1678C169.663 12.2622 169.649 12.3565 169.616 12.4451C169.59 12.5228 169.54 12.5898 169.473 12.6358C169.392 12.6913 169.303 12.7324 169.208 12.7571C169.066 12.7843 168.921 12.7988 168.775 12.8004H167.601L167.592 11.5699ZM169.759 14.8022C169.735 14.8927 169.685 14.9741 169.616 15.0362C169.527 15.1192 169.422 15.1826 169.308 15.2225C169.132 15.2748 168.95 15.2982 168.766 15.2919H167.592V13.8013H168.766C168.925 13.8 169.083 13.8115 169.239 13.836C169.355 13.8445 169.466 13.8867 169.559 13.9573C169.643 14.007 169.707 14.0856 169.737 14.1783C169.782 14.2942 169.801 14.4183 169.793 14.5423C169.799 14.6298 169.79 14.7175 169.767 14.8022H169.759Z" fill="white"/>
<path d="M177.629 12.177C177.497 11.8088 177.294 11.4702 177.031 11.1804C176.775 10.9024 176.462 10.6836 176.112 10.5391C175.708 10.3775 175.274 10.2979 174.839 10.3051C174.411 10.2987 173.987 10.3783 173.591 10.5391C173.228 10.6818 172.901 10.9025 172.633 11.1855C172.365 11.4685 172.162 11.807 172.039 12.177C171.756 12.9863 171.756 13.8678 172.039 14.6771C172.164 15.049 172.368 15.3891 172.637 15.6737C172.909 15.9488 173.233 16.1668 173.591 16.315C173.987 16.4758 174.411 16.5554 174.839 16.549C175.274 16.5562 175.708 16.4767 176.112 16.315C176.467 16.1688 176.787 15.9504 177.053 15.6737C177.31 15.3789 177.506 15.0356 177.629 14.6641C177.895 13.8519 177.895 12.9762 177.629 12.164V12.177ZM176.169 14.1008C176.131 14.307 176.052 14.5031 175.935 14.6771C175.825 14.8468 175.677 14.9879 175.501 15.0888C175.29 15.1973 175.054 15.2496 174.817 15.2404C174.587 15.2478 174.358 15.1955 174.154 15.0888C173.976 14.9823 173.827 14.8334 173.721 14.6555C173.598 14.4788 173.515 14.2778 173.478 14.0662C173.43 13.8527 173.404 13.635 173.4 13.4162C173.404 13.1918 173.43 12.9683 173.478 12.7489C173.517 12.5391 173.6 12.3399 173.721 12.164C173.828 11.9871 173.977 11.8385 174.154 11.7307C174.362 11.6425 174.588 11.6082 174.813 11.631C175.049 11.6194 175.285 11.6686 175.497 11.774C175.67 11.8758 175.818 12.015 175.93 12.1813C176.047 12.3604 176.126 12.5607 176.164 12.7706C176.251 13.2156 176.251 13.6732 176.164 14.1182L176.169 14.1008Z" fill="white"/>
<path opacity="0.75" d="M193.828 1.03516H192.828V21.0352H193.828V1.03516Z" fill="white"/>
<path d="M215.738 12.1218L214.588 10.9712L215.738 9.81711V7.51953L212.287 10.9712L215.738 14.4229V12.1218Z" fill="white"/>
<path d="M208.828 5.21094V16.7271H220.344V5.21094H208.828ZM218.7 15.0824H210.473V6.8556H218.7V15.0824Z" fill="white"/>
<path d="M227.057 8.73953C226.557 9.23552 226.306 9.85978 226.306 10.6123C226.306 11.3649 226.557 11.9913 227.057 12.4915C227.557 12.9918 228.184 13.2419 228.936 13.2419C229.402 13.2419 229.843 13.1436 230.257 12.9469C230.672 12.7502 230.971 12.5514 231.155 12.3504L231.431 12.0554L232.874 13.6332C232.84 13.6845 232.789 13.7529 232.72 13.8384C232.656 13.9196 232.502 14.0672 232.258 14.281C232.019 14.4905 231.758 14.6765 231.476 14.8389C231.198 15.0014 230.828 15.1468 230.366 15.2751C229.909 15.4076 229.432 15.4739 228.936 15.4739C227.508 15.4739 226.296 14.9971 225.3 14.0436C224.308 13.0859 223.812 11.9421 223.812 10.6123C223.812 9.28255 224.308 8.14091 225.3 7.18741C226.296 6.22964 227.508 5.75075 228.936 5.75075C229.428 5.75075 229.896 5.81488 230.341 5.94316C230.785 6.07143 231.151 6.22536 231.437 6.40494C231.728 6.58453 231.98 6.76411 232.194 6.94369C232.412 7.12328 232.568 7.2772 232.662 7.40548L232.81 7.59148L231.296 9.16924C231.271 9.13504 231.236 9.09228 231.194 9.04097C231.151 8.98538 231.053 8.89132 230.899 8.75877C230.745 8.62194 230.584 8.50222 230.418 8.3996C230.251 8.29271 230.031 8.19864 229.757 8.1174C229.488 8.03188 229.214 7.98912 228.936 7.98912C228.184 7.98912 227.557 8.23926 227.057 8.73953ZM234.058 6.01371H236.552V11.1382L240.49 6.01371H242.658V15.2109H240.163V10.0864L236.213 15.2109H234.058V6.01371ZM252.975 6.01371V15.2109H250.48V11.6642H247.132V15.2109H244.637V6.01371H247.132V9.4322H250.48V6.01371H252.975ZM257.442 13.1072H262.169V15.2109H254.947V6.01371H262.041V8.1174H257.442V9.56048H260.989V11.5359H257.442V13.1072ZM263.615 6.01371H267.752C268.761 6.01371 269.582 6.31943 270.215 6.93087C270.848 7.53803 271.164 8.30553 271.164 9.23338C271.164 10.1612 270.846 10.9309 270.209 11.5423C269.576 12.1495 268.757 12.4531 267.752 12.4531H266.11V15.2109H263.615V6.01371ZM267.618 8.25209H266.11V10.2211H267.618C267.908 10.2211 268.156 10.1227 268.362 9.92606C268.567 9.72937 268.669 9.50062 268.669 9.23979C268.669 8.97469 268.567 8.7438 268.362 8.54712C268.156 8.35043 267.908 8.25209 267.618 8.25209ZM272.617 15.2109V6.01371H279.185V8.25209H275.112V15.2109H272.617ZM280.234 6.01371H282.728V11.1382L286.666 6.01371H288.834V15.2109H286.339V10.0864L282.389 15.2109H280.234V6.01371ZM298.17 6.01371V15.2109H295.675V12.3184H294.36L292.782 15.2109H290.152L292.057 11.863C292.015 11.8459 291.957 11.8181 291.884 11.7796C291.816 11.7369 291.692 11.6385 291.512 11.4846C291.333 11.3264 291.172 11.1553 291.031 10.9715C290.894 10.7834 290.768 10.5289 290.653 10.2083C290.542 9.8833 290.486 9.53696 290.486 9.16924C290.486 8.2756 290.8 7.52734 291.429 6.92445C292.062 6.31729 292.863 6.01371 293.834 6.01371H298.17ZM293.25 8.51505C293.071 8.68608 292.981 8.90414 292.981 9.16924C292.981 9.43007 293.073 9.64813 293.257 9.82344C293.441 9.99875 293.676 10.0864 293.962 10.0864H295.675V8.25209H293.962C293.671 8.25209 293.434 8.33974 293.25 8.51505Z" fill="white"/>
</svg>
