<svg width="31" height="30" viewBox="0 0 31 30" fill="none" xmlns="http://www.w3.org/2000/svg">
<path d="M15.6311 4.00001C14.1589 3.99777 12.7012 4.29096 11.3443 4.86221C9.98744 5.43346 8.75897 6.27117 7.73167 7.32572C6.72323 8.36089 5.92857 9.58456 5.39304 10.9268C4.85752 12.2691 4.59162 13.7038 4.61053 15.1488C4.62944 16.5939 4.93279 18.021 5.50326 19.3488C6.07373 20.6767 6.90015 21.8791 7.93532 22.8875C9.6979 24.6003 11.9831 25.6737 14.4266 25.9368C16.8702 26.1998 19.3314 25.6374 21.4182 24.339L21.3141 24.44L25.6321 25.9872L23.9676 22.1653C25.7881 20.0417 26.7316 17.3046 26.6064 14.5103C26.4812 11.716 25.2966 9.07428 23.2935 7.12203C21.2427 5.12426 18.4941 4.00435 15.6311 4.00001Z" stroke="white" stroke-width="1.8" stroke-linecap="round" stroke-linejoin="round"/>
<path d="M19.7809 16.3303C19.143 16.3303 18.626 15.8133 18.626 15.1754C18.626 14.5376 19.143 14.0205 19.7809 14.0205C20.4187 14.0205 20.9358 14.5376 20.9358 15.1754C20.9358 15.8133 20.4187 16.3303 19.7809 16.3303Z" fill="white"/>
<path d="M15.4239 16.3303C14.7861 16.3303 14.269 15.8133 14.269 15.1754C14.269 14.5376 14.7861 14.0205 15.4239 14.0205C16.0618 14.0205 16.5789 14.5376 16.5789 15.1754C16.5789 15.8133 16.0618 16.3303 15.4239 16.3303Z" fill="white"/>
<path d="M11.069 16.3303C10.4311 16.3303 9.91404 15.8133 9.91404 15.1754C9.91404 14.5376 10.4311 14.0205 11.069 14.0205C11.7068 14.0205 12.2239 14.5376 12.2239 15.1754C12.2239 15.8133 11.7068 16.3303 11.069 16.3303Z" fill="white"/>
</svg>
