<svg width="25" height="25" viewBox="0 0 25 25" fill="none" xmlns="http://www.w3.org/2000/svg">
<path d="M12.3242 21.748C13.8669 21.748 14.5955 20.5671 14.7963 19.6697C14.8565 19.4002 14.6318 19.1746 14.3557 19.1746L10.2928 19.1746C10.0166 19.1746 9.79189 19.4002 9.85218 19.6697C10.0529 20.5671 10.7815 21.748 12.3242 21.748ZM17.9122 16.1498C17.8202 16.0563 17.7687 15.9303 17.7687 15.7992L17.7687 11.2597C17.7687 8.75345 16.1254 6.63653 13.8799 5.96043C13.6551 5.89276 13.4909 5.69203 13.4909 5.45731L13.4909 4.93409C13.4909 4.27781 12.9698 3.74805 12.3242 3.74805C11.6787 3.74805 11.1576 4.27781 11.1576 4.93409L11.1576 5.45731C11.1576 5.69203 10.9933 5.89277 10.7686 5.96043C8.52301 6.63653 6.87977 8.75345 6.87977 11.2597L6.87977 15.7992C6.87977 15.9303 6.82822 16.0563 6.73623 16.1498L5.46776 17.4393C5.37577 17.5328 5.32422 17.6588 5.32422 17.79V17.876C5.32422 18.1521 5.54808 18.376 5.82422 18.376L18.8242 18.376C19.1004 18.376 19.3242 18.1521 19.3242 17.876V17.79C19.3242 17.6588 19.2727 17.5328 19.1807 17.4393L17.9122 16.1498ZM16.2131 16.2946C16.2131 16.5707 15.9893 16.7946 15.7131 16.7946L8.93533 16.7946C8.65919 16.7946 8.43533 16.5707 8.43533 16.2946L8.43533 11.2597C8.43533 9.07735 10.1776 7.30619 12.3242 7.30619C14.4709 7.30619 16.2131 9.07735 16.2131 11.2597L16.2131 16.2946Z" fill="white" stroke="white" stroke-width="0.3"/>
</svg>
