<svg width="30" height="30" viewBox="0 0 30 30" fill="none" xmlns="http://www.w3.org/2000/svg">
<path d="M21.9108 11.3029C21.9108 10.8395 21.5351 10.4637 21.0716 10.4637H9.32254C8.85906 10.4637 8.48333 10.8395 8.48333 11.3029C8.48333 11.7664 8.85906 12.1422 9.32254 12.1422H21.0716C21.5351 12.1422 21.9108 11.7664 21.9108 11.3029ZM25.7006 13.7285C25.437 13.5239 25.2676 13.2158 25.2676 12.8821V4.75C25.2676 4.19772 24.8199 3.75 24.2676 3.75H6.12647C5.57418 3.75 5.12646 4.19772 5.12646 4.75V22.8912C5.12646 23.4435 5.57418 23.8912 6.12646 23.8912H14.2586C14.5923 23.8912 14.9003 24.0606 15.105 24.3241C16.4862 26.1025 18.6441 27.2473 21.0716 27.248C25.2433 27.2464 28.6228 23.8668 28.6245 19.6951C28.6237 17.2676 27.4789 15.1097 25.7006 13.7285ZM13.4279 15.499C14.0103 15.499 14.3753 16.1587 14.146 16.694C14.0244 16.9779 13.751 17.1775 13.4421 17.1775H9.32254C8.85906 17.1775 8.48333 17.5532 8.48333 18.0167C8.48333 18.4802 8.85906 18.8559 9.32254 18.8559H12.7263C13.1752 18.8559 13.5186 19.2462 13.5186 19.6951C13.5186 20.0861 13.5497 20.4692 13.6085 20.8429C13.7159 21.5251 13.2325 22.2128 12.5419 22.2128H7.8049C7.25261 22.2128 6.8049 21.765 6.8049 21.2128V6.42843C6.8049 5.87615 7.25261 5.42843 7.8049 5.42843H22.5892C23.1415 5.42843 23.5892 5.87615 23.5892 6.42843V11.1654C23.5892 11.856 22.9015 12.3394 22.2193 12.2321C21.8456 12.1733 21.4626 12.1422 21.0716 12.1422C19.4002 12.1422 17.8586 12.6865 16.6084 13.6047C16.424 13.7402 16.2035 13.8206 15.9747 13.8206H9.32255C8.85906 13.8206 8.48333 14.1963 8.48333 14.6598C8.48333 15.1233 8.85906 15.499 9.32254 15.499H13.4279ZM21.0716 25.4714C17.8817 25.4639 15.3011 22.8833 15.2936 19.6951C15.3011 16.5052 17.8817 13.9247 21.0716 13.9179C24.2597 13.9247 26.8403 16.5052 26.8479 19.6951C26.8403 22.8833 24.2597 25.4639 21.0716 25.4714Z" fill="white"/>
<path d="M18.9734 21.793C19.438 22.2575 19.109 23.0518 18.452 23.0518C18.0447 23.0518 17.7146 22.7217 17.7146 22.3144C17.7146 21.6575 18.5089 21.3285 18.9734 21.793ZM24.5607 17.3094C24.9511 17.7 24.951 18.333 24.5606 18.7235L21.7787 21.5054C21.3881 21.896 20.7549 21.8959 20.3644 21.5053L19.2607 20.4012C18.8703 20.0107 18.8703 19.3776 19.2608 18.9871L22.0427 16.2053C22.4332 15.8147 23.0665 15.8148 23.457 16.2054L24.5607 17.3094Z" fill="white"/>
</svg>
