<svg width="30" height="30" viewBox="0 0 30 30" fill="none" xmlns="http://www.w3.org/2000/svg">
<path d="M14.9999 14.0506C16.0875 14.0506 17.1506 13.7281 18.0549 13.1239C18.9592 12.5196 19.664 11.6608 20.0802 10.656C20.4964 9.65122 20.6053 8.54557 20.3932 7.47888C20.181 6.41219 19.6573 5.43238 18.8882 4.66334C18.1192 3.8943 17.1394 3.37057 16.0727 3.1584C15.006 2.94622 13.9003 3.05512 12.8955 3.47132C11.8907 3.88752 11.0319 4.59233 10.4277 5.49663C9.82346 6.40092 9.50095 7.46409 9.50095 8.55167C9.5027 10.0095 10.0826 11.4072 11.1135 12.4381C12.1444 13.4689 13.542 14.0489 14.9999 14.0506ZM14.9999 5.25231C15.6524 5.25231 16.2903 5.44581 16.8329 5.80835C17.3755 6.17089 17.7984 6.68618 18.0481 7.28906C18.2978 7.89194 18.3632 8.55533 18.2359 9.19534C18.1085 9.83536 17.7943 10.4232 17.3329 10.8847C16.8715 11.3461 16.2836 11.6603 15.6436 11.7876C15.0035 11.9149 14.3402 11.8496 13.7373 11.5999C13.1344 11.3502 12.6191 10.9273 12.2566 10.3847C11.894 9.84212 11.7005 9.20422 11.7005 8.55167C11.7005 7.67663 12.0481 6.83742 12.6669 6.21867C13.2856 5.59992 14.1248 5.25231 14.9999 5.25231ZM6.20159 27.248H23.7982C24.0899 27.248 24.3696 27.1322 24.5759 26.9259C24.7821 26.7197 24.898 26.4399 24.898 26.1483V21.7491C24.8962 20.2912 24.3163 18.8936 23.2854 17.8627C22.2546 16.8318 20.8569 16.2519 19.399 16.2502H10.6007C9.14287 16.2519 7.74521 16.8318 6.71434 17.8627C5.68346 18.8936 5.10355 20.2912 5.10181 21.7491V26.1483C5.10181 26.4399 5.21768 26.7197 5.42393 26.9259C5.63018 27.1322 5.90991 27.248 6.20159 27.248ZM7.30138 21.7491C7.30138 20.8741 7.64899 20.0349 8.26774 19.4161C8.88649 18.7974 9.7257 18.4498 10.6007 18.4498H19.399C20.2741 18.4498 21.1133 18.7974 21.732 19.4161C22.3508 20.0349 22.6984 20.8741 22.6984 21.7491V25.0485H7.30138V21.7491Z" fill="white"/>
</svg>
