<svg width="30" height="30" viewBox="0 0 30 30" fill="none" xmlns="http://www.w3.org/2000/svg">
<path d="M4.9713 14.4865C6.29677 14.4865 7.37128 13.412 7.37128 12.0865C7.37128 10.761 6.29677 9.68652 4.9713 9.68652C3.64581 9.68652 2.57129 10.761 2.57129 12.0865C2.57129 13.412 3.64581 14.4865 4.9713 14.4865Z" stroke="white" stroke-width="2" stroke-miterlimit="10"/>
<path d="M7.28568 23.916H2.39997C1.62854 23.916 1.11426 23.316 1.11426 22.5446V20.1446C1.11426 18.2589 2.57139 16.8018 4.45711 16.8018H7.45711" stroke="white" stroke-width="2" stroke-miterlimit="10"/>
<path d="M15.2573 12.2567C17.3402 12.2567 19.0287 10.5682 19.0287 8.4853C19.0287 6.4024 17.3402 4.71387 15.2573 4.71387C13.1744 4.71387 11.4858 6.4024 11.4858 8.4853C11.4858 10.5682 13.1744 12.2567 15.2573 12.2567Z" stroke="white" stroke-width="2" stroke-miterlimit="10"/>
<path d="M20.8288 25.2864H9.34305C8.14305 25.2864 7.2002 24.3436 7.2002 23.1436V19.4578C7.2002 16.5436 9.68591 14.1436 12.6859 14.1436H17.5716C20.5716 14.1436 23.0573 16.5436 23.0573 19.4578V23.1436C22.9716 24.3436 22.0288 25.2864 20.8288 25.2864Z" stroke="white" stroke-width="2" stroke-miterlimit="10"/>
<path d="M25.0284 14.4865C26.3539 14.4865 27.4284 13.412 27.4284 12.0865C27.4284 10.761 26.3539 9.68652 25.0284 9.68652C23.7029 9.68652 22.6284 10.761 22.6284 12.0865C22.6284 13.412 23.7029 14.4865 25.0284 14.4865Z" stroke="white" stroke-width="2" stroke-miterlimit="10"/>
<path d="M22.7144 23.916H27.6001C28.3715 23.916 28.8858 23.316 28.8858 22.5446V20.1446C28.8858 18.2589 27.4287 16.8018 25.543 16.8018H22.543" stroke="white" stroke-width="2" stroke-miterlimit="10"/>
</svg>
