<svg width="31" height="30" viewBox="0 0 31 30" fill="none" xmlns="http://www.w3.org/2000/svg">
<path d="M20.5 7.8C20.3895 7.8 20.3 7.88954 20.3 8V10C20.3 10.1105 20.3895 10.2 20.5 10.2H22.5C22.6105 10.2 22.7 10.1105 22.7 10V8C22.7 7.88954 22.6105 7.8 22.5 7.8H20.5ZM20.3 22.2V21.6C20.3 21.2686 20.5686 21 20.9 21C21.2314 21 21.5 21.2686 21.5 21.6V22.2H22.7V21.6C22.7 21.2686 22.9686 21 23.3 21C23.6314 21 23.9 21.2686 23.9 21.6V22.8C23.9 23.1314 23.6314 23.4 23.3 23.4H18.5C18.1686 23.4 17.9 23.1314 17.9 22.8V21.6C17.9 21.2686 18.1686 21 18.5 21C18.8314 21 19.1 21.2686 19.1 21.6V22.2H20.3ZM16.7 13.8H17.3C17.6314 13.8 17.9 14.0686 17.9 14.4C17.9 14.7314 17.6314 15 17.3 15H14.9C14.5686 15 14.3 14.7314 14.3 14.4C14.3 14.0686 14.5686 13.8 14.9 13.8H15.5V12.6H13.7C13.3686 12.6 13.1 12.3314 13.1 12C13.1 11.6686 13.3686 11.4 13.7 11.4H17.3C17.6314 11.4 17.9 11.6686 17.9 12C17.9 12.3314 17.6314 12.6 17.3 12.6H16.7V13.8ZM22.7 15H22.1C21.7686 15 21.5 14.7314 21.5 14.4C21.5 14.0686 21.7686 13.8 22.1 13.8H22.7V13.2C22.7 12.8686 22.9686 12.6 23.3 12.6C23.6314 12.6 23.9 12.8686 23.9 13.2V15.6C23.9 15.9314 23.6314 16.2 23.3 16.2C22.9686 16.2 22.7 15.9314 22.7 15.6V15ZM16.7 17.4H16.1C15.7686 17.4 15.5 17.1314 15.5 16.8C15.5 16.4686 15.7686 16.2 16.1 16.2H17.3C17.6314 16.2 17.9 16.4686 17.9 16.8V19.2C17.9 19.5314 17.6314 19.8 17.3 19.8H13.7C13.3686 19.8 13.1 19.5314 13.1 19.2C13.1 18.8686 13.3686 18.6 13.7 18.6H16.7V17.4ZM20.5 6.6H22.5C23.2732 6.6 23.9 7.2268 23.9 8V10C23.9 10.7732 23.2732 11.4 22.5 11.4H20.5C19.7268 11.4 19.1 10.7732 19.1 10V8C19.1 7.2268 19.7268 6.6 20.5 6.6ZM8.5 6.6H10.5C11.2732 6.6 11.9 7.2268 11.9 8V10C11.9 10.7732 11.2732 11.4 10.5 11.4H8.5C7.7268 11.4 7.1 10.7732 7.1 10V8C7.1 7.2268 7.7268 6.6 8.5 6.6ZM8.5 7.8C8.38954 7.8 8.3 7.88954 8.3 8V10C8.3 10.1105 8.38954 10.2 8.5 10.2H10.5C10.6105 10.2 10.7 10.1105 10.7 10V8C10.7 7.88954 10.6105 7.8 10.5 7.8H8.5ZM8.5 18.6H10.5C11.2732 18.6 11.9 19.2268 11.9 20V22C11.9 22.7732 11.2732 23.4 10.5 23.4H8.5C7.7268 23.4 7.1 22.7732 7.1 22V20C7.1 19.2268 7.7268 18.6 8.5 18.6ZM8.5 19.8C8.38954 19.8 8.3 19.8895 8.3 20V22C8.3 22.1105 8.38954 22.2 8.5 22.2H10.5C10.6105 22.2 10.7 22.1105 10.7 22V20C10.7 19.8895 10.6105 19.8 10.5 19.8H8.5ZM16.7 7.8H13.7C13.3686 7.8 13.1 7.53137 13.1 7.2C13.1 6.86863 13.3686 6.6 13.7 6.6H17.3C17.6314 6.6 17.9 6.86863 17.9 7.2V9.6C17.9 9.93137 17.6314 10.2 17.3 10.2C16.9686 10.2 16.7 9.93137 16.7 9.6V7.8ZM13.7 10.2C13.3686 10.2 13.1 9.93137 13.1 9.6C13.1 9.26863 13.3686 9 13.7 9H14.9C15.2314 9 15.5 9.26863 15.5 9.6C15.5 9.93137 15.2314 10.2 14.9 10.2H13.7ZM7.7 17.4C7.36863 17.4 7.1 17.1314 7.1 16.8C7.1 16.4686 7.36863 16.2 7.7 16.2H10.1C10.4314 16.2 10.7 16.4686 10.7 16.8C10.7 17.1314 10.4314 17.4 10.1 17.4H7.7ZM12.5 17.4C12.1686 17.4 11.9 17.1314 11.9 16.8C11.9 16.4686 12.1686 16.2 12.5 16.2H13.7C14.0314 16.2 14.3 16.4686 14.3 16.8C14.3 17.1314 14.0314 17.4 13.7 17.4H12.5ZM14.3 22.2V22.8C14.3 23.1314 14.0314 23.4 13.7 23.4C13.3686 23.4 13.1 23.1314 13.1 22.8V21.6C13.1 21.2686 13.3686 21 13.7 21H16.1C16.4314 21 16.7 21.2686 16.7 21.6C16.7 21.9314 16.4314 22.2 16.1 22.2H14.3ZM11.9 13.8H12.5C12.8314 13.8 13.1 14.0686 13.1 14.4C13.1 14.7314 12.8314 15 12.5 15H11.3C10.9686 15 10.7 14.7314 10.7 14.4V13.8H10.1C9.76863 13.8 9.5 13.5314 9.5 13.2C9.5 12.8686 9.76863 12.6 10.1 12.6H11.3C11.6314 12.6 11.9 12.8686 11.9 13.2V13.8ZM7.1 13.2C7.1 12.8686 7.36863 12.6 7.7 12.6C8.03137 12.6 8.3 12.8686 8.3 13.2V14.4C8.3 14.7314 8.03137 15 7.7 15C7.36863 15 7.1 14.7314 7.1 14.4V13.2ZM19.1 13.2C19.1 12.8686 19.3686 12.6 19.7 12.6C20.0314 12.6 20.3 12.8686 20.3 13.2V15.6C20.3 15.9314 20.0314 16.2 19.7 16.2C19.3686 16.2 19.1 15.9314 19.1 15.6V13.2ZM21.5 18.6V18C21.5 17.6686 21.7686 17.4 22.1 17.4H23.3C23.6314 17.4 23.9 17.6686 23.9 18C23.9 18.3314 23.6314 18.6 23.3 18.6H22.7V19.2C22.7 19.5314 22.4314 19.8 22.1 19.8H19.7C19.3686 19.8 19.1 19.5314 19.1 19.2V18C19.1 17.6686 19.3686 17.4 19.7 17.4C20.0314 17.4 20.3 17.6686 20.3 18V18.6H21.5ZM4.7 8.4C4.7 8.73137 4.43137 9 4.1 9C3.76863 9 3.5 8.73137 3.5 8.4V6C3.5 4.34315 4.84315 3 6.5 3H8.9C9.23137 3 9.5 3.26863 9.5 3.6C9.5 3.93137 9.23137 4.2 8.9 4.2H6.5C5.50589 4.2 4.7 5.00589 4.7 6V8.4ZM22.1 4.2C21.7686 4.2 21.5 3.93137 21.5 3.6C21.5 3.26863 21.7686 3 22.1 3H24.5C26.1569 3 27.5 4.34315 27.5 6V8.4C27.5 8.73137 27.2314 9 26.9 9C26.5686 9 26.3 8.73137 26.3 8.4V6C26.3 5.00589 25.4941 4.2 24.5 4.2H22.1ZM8.9 25.8C9.23137 25.8 9.5 26.0686 9.5 26.4C9.5 26.7314 9.23137 27 8.9 27H6.5C4.84315 27 3.5 25.6569 3.5 24V21.6C3.5 21.2686 3.76863 21 4.1 21C4.43137 21 4.7 21.2686 4.7 21.6V24C4.7 24.9941 5.50589 25.8 6.5 25.8H8.9ZM26.3 21.6C26.3 21.2686 26.5686 21 26.9 21C27.2314 21 27.5 21.2686 27.5 21.6V24C27.5 25.6569 26.1569 27 24.5 27H22.1C21.7686 27 21.5 26.7314 21.5 26.4C21.5 26.0686 21.7686 25.8 22.1 25.8H24.5C25.4941 25.8 26.3 24.9941 26.3 24V21.6Z" fill="white"/>
</svg>
