<svg width="31" height="30" viewBox="0 0 31 30" fill="none" xmlns="http://www.w3.org/2000/svg">
<path d="M16.3 26.9999H14.7C14.1104 27.0042 13.5398 26.7912 13.0972 26.4017C12.6545 26.0122 12.3708 25.4733 12.3 24.8879C11.7632 24.7183 11.2414 24.5042 10.74 24.248C10.2758 24.615 9.69237 24.7976 9.10174 24.7607C8.5111 24.7238 7.95493 24.4699 7.54004 24.048L6.45205 22.92C6.03005 22.5051 5.77622 21.9489 5.7393 21.3583C5.70239 20.7676 5.88499 20.1842 6.25205 19.72C5.99781 19.2315 5.78377 18.7232 5.61205 18.2C5.02667 18.1292 4.48782 17.8455 4.09828 17.4028C3.70875 16.9602 3.4958 16.3896 3.50006 15.8V14.2C3.4958 13.6104 3.70875 13.0398 4.09828 12.5972C4.48782 12.1545 5.02667 11.8708 5.61205 11.8C5.78172 11.2632 5.99579 10.7414 6.25205 10.24C5.88499 9.77582 5.70239 9.19237 5.7393 8.60174C5.77622 8.0111 6.03005 7.45493 6.45205 7.04004L7.58004 5.95205C7.99493 5.53005 8.5511 5.27622 9.14174 5.2393C9.73237 5.20239 10.3158 5.38499 10.78 5.75205C11.2685 5.49781 11.7768 5.28377 12.3 5.11205C12.3708 4.52667 12.6545 3.98782 13.0972 3.59828C13.5398 3.20875 14.1104 2.9958 14.7 3.00006H16.3C16.8896 2.9958 17.4602 3.20875 17.9028 3.59828C18.3455 3.98782 18.6292 4.52667 18.7 5.11205C19.2368 5.28172 19.7586 5.49579 20.26 5.75205C20.7242 5.38499 21.3076 5.20239 21.8983 5.2393C22.4889 5.27622 23.0451 5.53005 23.46 5.95205L24.548 7.08004C24.9699 7.49493 25.2238 8.0511 25.2607 8.64174C25.2976 9.23237 25.115 9.81582 24.748 10.28C25.0042 10.7814 25.2183 11.3032 25.3879 11.84C25.9665 11.9099 26.4998 12.1879 26.8885 12.6222C27.2771 13.0565 27.4944 13.6173 27.4999 14.2V15.8C27.5042 16.3896 27.2912 16.9602 26.9017 17.4028C26.5122 17.8455 25.9733 18.1292 25.3879 18.2C25.2183 18.7368 25.0042 19.2586 24.748 19.76C25.115 20.2242 25.2976 20.8076 25.2607 21.3983C25.2238 21.9889 24.9699 22.5451 24.548 22.96L23.42 24.048C23.0051 24.4699 22.4489 24.7238 21.8583 24.7607C21.2676 24.7976 20.6842 24.615 20.22 24.248C19.7186 24.5042 19.1968 24.7183 18.66 24.8879C18.5901 25.4665 18.3121 25.9998 17.8778 26.3885C17.4435 26.7771 16.8827 26.9944 16.3 26.9999ZM10.628 22.464C10.7719 22.4615 10.9135 22.5003 11.036 22.576C11.7434 22.992 12.5054 23.307 13.3 23.512C13.476 23.5573 13.6314 23.6612 13.7404 23.8067C13.8495 23.9521 13.9058 24.1303 13.9 24.312V24.6C13.9 24.8121 13.9843 25.0156 14.1343 25.1656C14.2844 25.3157 14.4878 25.3999 14.7 25.3999H16.3C16.5122 25.3999 16.7157 25.3157 16.8657 25.1656C17.0157 25.0156 17.1 24.8121 17.1 24.6V24.288C17.0942 24.1063 17.1505 23.9281 17.2596 23.7827C17.3686 23.6372 17.524 23.5333 17.7 23.488C18.4946 23.283 19.2566 22.968 19.964 22.552C20.116 22.4624 20.2933 22.4257 20.4684 22.4474C20.6434 22.4691 20.8064 22.548 20.932 22.672L21.156 22.896C21.2303 22.9709 21.3188 23.0305 21.4163 23.0711C21.5138 23.1117 21.6184 23.1326 21.724 23.1326C21.8296 23.1326 21.9341 23.1117 22.0316 23.0711C22.1291 23.0305 22.2176 22.9709 22.292 22.896L23.42 21.768C23.4949 21.6936 23.5545 21.6051 23.5951 21.5076C23.6357 21.4101 23.6566 21.3056 23.6566 21.2C23.6566 21.0944 23.6357 20.9898 23.5951 20.8923C23.5545 20.7948 23.4949 20.7063 23.42 20.632L23.196 20.408C23.072 20.2824 22.9931 20.1194 22.9714 19.9444C22.9497 19.7693 22.9864 19.592 23.076 19.44C23.492 18.7326 23.807 17.9706 24.012 17.176C24.0573 17 24.1612 16.8446 24.3067 16.7356C24.4521 16.6265 24.6303 16.5702 24.812 16.576H25.1C25.3121 16.576 25.5156 16.4917 25.6656 16.3417C25.8157 16.1917 25.8999 15.9882 25.8999 15.776V14.2C25.8999 13.9878 25.8157 13.7844 25.6656 13.6343C25.5156 13.4843 25.3121 13.4 25.1 13.4H24.788C24.6063 13.4058 24.4281 13.3495 24.2827 13.2404C24.1372 13.1314 24.0333 12.976 23.988 12.8C23.783 12.0054 23.468 11.2434 23.052 10.536C22.9624 10.384 22.9257 10.2067 22.9474 10.0316C22.9691 9.85656 23.048 9.69357 23.172 9.56803L23.396 9.34403C23.4709 9.26966 23.5305 9.18118 23.5711 9.08369C23.6117 8.98621 23.6326 8.88164 23.6326 8.77603C23.6326 8.67042 23.6117 8.56586 23.5711 8.46837C23.5305 8.37089 23.4709 8.28241 23.396 8.20804L22.292 7.08004C22.2176 7.00506 22.1291 6.94554 22.0316 6.90493C21.9341 6.86431 21.8296 6.8434 21.724 6.8434C21.6184 6.8434 21.5138 6.86431 21.4163 6.90493C21.3188 6.94554 21.2303 7.00506 21.156 7.08004L20.932 7.30404C20.8064 7.42797 20.6434 7.50693 20.4684 7.52863C20.2933 7.55033 20.116 7.51356 19.964 7.42404C19.2566 7.00801 18.4946 6.69296 17.7 6.48804C17.524 6.44269 17.3686 6.33876 17.2596 6.19335C17.1505 6.04794 17.0942 5.86972 17.1 5.68805V5.40005C17.1 5.18788 17.0157 4.9844 16.8657 4.83437C16.7157 4.68434 16.5122 4.60005 16.3 4.60005H14.7C14.4878 4.60005 14.2844 4.68434 14.1343 4.83437C13.9843 4.9844 13.9 5.18788 13.9 5.40005V5.71205C13.9058 5.89372 13.8495 6.07194 13.7404 6.21735C13.6314 6.36276 13.476 6.46669 13.3 6.51204C12.5054 6.71696 11.7434 7.03201 11.036 7.44804C10.884 7.53756 10.7067 7.57433 10.5316 7.55263C10.3566 7.53093 10.1936 7.45197 10.068 7.32804L9.84403 7.08004C9.76966 7.00506 9.68118 6.94554 9.58369 6.90493C9.48621 6.86431 9.38164 6.8434 9.27603 6.8434C9.17042 6.8434 9.06586 6.86431 8.96837 6.90493C8.87089 6.94554 8.78241 7.00506 8.70804 7.08004L7.58004 8.20804C7.50506 8.28241 7.44554 8.37089 7.40493 8.46837C7.36431 8.56586 7.3434 8.67042 7.3434 8.77603C7.3434 8.88164 7.36431 8.98621 7.40493 9.08369C7.44554 9.18118 7.50506 9.26966 7.58004 9.34403L7.80404 9.56803C7.92797 9.69357 8.00693 9.85656 8.02863 10.0316C8.05033 10.2067 8.01356 10.384 7.92404 10.536C7.50801 11.2434 7.19296 12.0054 6.98804 12.8C6.94269 12.976 6.83876 13.1314 6.69335 13.2404C6.54794 13.3495 6.36972 13.4058 6.18805 13.4H5.90005C5.68788 13.4 5.4844 13.4843 5.33437 13.6343C5.18434 13.7844 5.10005 13.9878 5.10005 14.2V15.8C5.10005 16.0122 5.18434 16.2157 5.33437 16.3657C5.4844 16.5157 5.68788 16.6 5.90005 16.6H6.21205C6.39372 16.5942 6.57194 16.6505 6.71735 16.7596C6.86276 16.8686 6.96669 17.024 7.01204 17.2C7.21696 17.9946 7.53201 18.7566 7.94804 19.464C8.03756 19.616 8.07433 19.7933 8.05263 19.9684C8.03093 20.1434 7.95197 20.3064 7.82804 20.432L7.60404 20.656C7.52906 20.7303 7.46954 20.8188 7.42893 20.9163C7.38831 21.0138 7.3674 21.1184 7.3674 21.224C7.3674 21.3296 7.38831 21.4341 7.42893 21.5316C7.46954 21.6291 7.52906 21.7176 7.60404 21.792L8.70804 22.92C8.78241 22.9949 8.87089 23.0545 8.96837 23.0951C9.06586 23.1357 9.17042 23.1566 9.27603 23.1566C9.38164 23.1566 9.48621 23.1357 9.58369 23.0951C9.68118 23.0545 9.76966 22.9949 9.84403 22.92L10.068 22.696C10.217 22.5482 10.4182 22.4648 10.628 22.464Z" fill="white"/>
<path d="M15.5 21C14.3133 21 13.1533 20.6481 12.1666 19.9888C11.1799 19.3295 10.4109 18.3925 9.95673 17.2961C9.5026 16.1997 9.38378 14.9933 9.61529 13.8295C9.8468 12.6656 10.4182 11.5965 11.2574 10.7574C12.0965 9.91825 13.1656 9.3468 14.3295 9.11529C15.4933 8.88378 16.6997 9.0026 17.7961 9.45673C18.8925 9.91085 19.8295 10.6799 20.4888 11.6666C21.1481 12.6533 21.5 13.8133 21.5 15C21.5 16.5913 20.8679 18.1174 19.7426 19.2426C18.6174 20.3679 17.0913 21 15.5 21ZM15.5 10.7143C14.6524 10.7143 13.8238 10.9656 13.119 11.4366C12.4142 11.9075 11.8649 12.5768 11.5405 13.3599C11.2161 14.143 11.1313 15.0048 11.2966 15.8361C11.462 16.6674 11.8702 17.4311 12.4695 18.0305C13.0689 18.6298 13.8326 19.038 14.6639 19.2034C15.4952 19.3687 16.357 19.2839 17.1401 18.9595C17.9232 18.6351 18.5925 18.0858 19.0634 17.381C19.5344 16.6762 19.7857 15.8476 19.7857 15C19.7857 13.8634 19.3342 12.7733 18.5305 11.9695C17.7267 11.1658 16.6366 10.7143 15.5 10.7143Z" fill="white"/>
</svg>
