<svg width="31" height="30" viewBox="0 0 31 30" fill="none" xmlns="http://www.w3.org/2000/svg">
<path d="M25.0639 6.00781H5.49179C4.95132 6.00781 4.51318 6.41465 4.51318 6.91652V25.0906C4.51318 25.5925 4.95132 25.9993 5.49179 25.9993H25.0639C25.6044 25.9993 26.0425 25.5925 26.0425 25.0906V6.91652C26.0425 6.41465 25.6044 6.00781 25.0639 6.00781Z" stroke="white" stroke-width="1.5" stroke-linecap="round" stroke-linejoin="round"/>
<path d="M20.47 4V7.46007" stroke="white" stroke-width="1.5" stroke-linecap="round" stroke-linejoin="round"/>
<path d="M10.0901 4V7.46007" stroke="white" stroke-width="1.5" stroke-linecap="round" stroke-linejoin="round"/>
<path d="M5.76514 12.9004H24.7955" stroke="white" stroke-width="1.5" stroke-linecap="round" stroke-linejoin="round"/>
<path d="M6.63037 18.9946C6.63037 18.7185 6.85423 18.4946 7.13037 18.4946H16.5106C16.7867 18.4946 17.0106 18.7185 17.0106 18.9946V19.7247C17.0106 20.0008 16.7867 20.2247 16.5106 20.2247H7.13037C6.85423 20.2247 6.63037 20.0008 6.63037 19.7247V18.9946Z" fill="white"/>
<path d="M18.7405 18.9946C18.7405 18.7185 18.9643 18.4946 19.2405 18.4946H23.4306C23.7067 18.4946 23.9306 18.7185 23.9306 18.9946V19.7247C23.9306 20.0008 23.7067 20.2247 23.4306 20.2247H19.2405C18.9643 20.2247 18.7405 20.0008 18.7405 19.7247V18.9946Z" fill="white"/>
</svg>
