<svg width="24" height="24" viewBox="0 0 24 24" fill="none" xmlns="http://www.w3.org/2000/svg">
<path d="M19.6002 18.0903L16.0776 14.5677C16.7814 13.5069 17.4197 12.0752 17.4197 10.7097C17.4197 7.00999 14.4096 4 10.7098 4C7.01003 4 4 7.00999 4 10.7097C4 14.4095 7.01003 17.4195 10.7098 17.4195C12.0753 17.4195 13.507 16.7813 14.5679 16.0774L18.0905 19.6C18.6139 20.124 19.3174 20.1037 19.7104 19.7102C20.1034 19.3167 20.1242 18.6143 19.6002 18.0903ZM6.01295 10.7097C6.01295 8.11978 8.11983 6.01292 10.7098 6.01292C13.2998 6.01292 15.4067 8.11978 15.4067 10.7097C15.4067 13.2997 13.2998 15.4066 10.7098 15.4066C8.11983 15.4066 6.01295 13.2997 6.01295 10.7097Z" fill="#212227"/>
</svg>
