<svg width="31" height="30" viewBox="0 0 31 30" fill="none" xmlns="http://www.w3.org/2000/svg">
<path d="M26.4295 12.2931C26.2604 11.7507 25.8016 11.3467 25.2604 11.2636L19.4129 10.3766L16.7981 4.8439C16.5567 4.33134 16.0474 4 15.5004 4C14.9528 4 14.4428 4.33119 14.2009 4.8436L11.5868 10.3766L5.73813 11.2638C5.19777 11.3465 4.73911 11.7505 4.56954 12.2934C4.40091 12.8367 4.54499 13.445 4.93639 13.843L9.16735 18.1509L8.16954 24.2321C8.07604 24.7948 8.30183 25.3756 8.7446 25.7114C8.99311 25.9001 9.28767 26 9.59664 26C9.83077 26 10.0638 25.94 10.2703 25.8267L15.5005 22.9552L20.7303 25.8267C20.9367 25.94 21.1694 26 21.4034 26C21.7121 26 22.0065 25.9002 22.255 25.7114C22.6977 25.3751 22.9237 24.7945 22.8308 24.2327L21.8319 18.1509L26.0636 13.8431C26.4559 13.4439 26.5996 12.8353 26.4295 12.2931ZM25.6404 13.3898L21.2945 17.8137C21.2232 17.8865 21.1904 17.9912 21.2074 18.0939L22.2334 24.3402C22.2874 24.6665 22.156 25.0039 21.8985 25.1997C21.7543 25.3092 21.5831 25.3673 21.4034 25.3673C21.2673 25.3673 21.1321 25.3324 21.0124 25.2666L15.6416 22.3175C15.5973 22.2933 15.549 22.2813 15.5005 22.2813C15.452 22.2813 15.4035 22.2933 15.3594 22.3175L9.98833 25.2666C9.71012 25.4192 9.35464 25.3924 9.10084 25.1995C8.84356 25.0044 8.71232 24.6672 8.76674 24.3398L9.79169 18.094C9.80851 17.9915 9.77595 17.8866 9.70455 17.8139L5.35932 13.3898C5.13169 13.1583 5.04794 12.8046 5.14582 12.4894C5.24446 12.1737 5.51163 11.9385 5.82574 11.8903L11.8317 10.9792C11.9303 10.9642 12.0158 10.8995 12.0599 10.8059L14.7445 5.12351C14.8851 4.8255 15.1818 4.63295 15.5005 4.63295C15.8182 4.63295 16.114 4.82535 16.2545 5.12366L18.94 10.8059C18.9842 10.8995 19.0694 10.9642 19.1682 10.9792L25.1728 11.8901C25.4878 11.9385 25.7549 12.1735 25.8535 12.4897C25.9521 12.8045 25.8686 13.1578 25.6404 13.3898Z" fill="white" stroke="white"/>
</svg>
