<svg width="31" height="30" viewBox="0 0 31 30" fill="none" xmlns="http://www.w3.org/2000/svg">
<path d="M15.0885 12.2165C16.362 12.2165 17.4516 11.7701 18.3576 10.8643C19.2635 9.95819 19.7099 8.86864 19.7099 7.5951C19.7099 6.32156 19.2601 5.24825 18.3576 4.35227C17.4484 3.44953 16.362 3 15.0885 3C13.8149 3 12.7416 3.44953 11.8325 4.35224C10.9297 5.24822 10.4802 6.32153 10.4802 7.59507C10.4802 8.86861 10.9267 9.95813 11.8325 10.8642C12.7383 11.77 13.8149 12.2165 15.0885 12.2165ZM12.8696 5.37625C13.4866 4.75923 14.235 4.44412 15.0885 4.44412C15.9679 4.44412 16.7031 4.7592 17.3205 5.37625C17.9375 5.99326 18.2526 6.74167 18.2526 7.5951C18.2526 8.47484 17.9375 9.22297 17.3205 9.84026C16.7031 10.4573 15.9679 10.7592 15.0885 10.7592C14.235 10.7592 13.4867 10.4573 12.8696 9.84026C12.2526 9.22294 11.9375 8.47484 11.9375 7.5951C11.9375 6.74167 12.2526 5.99326 12.8696 5.37625Z" fill="white" stroke="white" stroke-width="0.5"/>
<path d="M22.6638 19.3195V18.9913C22.6638 15.8266 19.8287 13.0308 16.664 13.0308H15.1149H13.5786C11.9499 13.0308 10.5458 13.6873 9.37759 14.8295C8.20907 15.9717 7.49988 17.3614 7.49988 18.9913V19.3195V25.4243C7.49988 26.3172 8.19589 26.9998 9.08854 26.9998H15.1149H21.1014C21.5347 26.9998 21.9123 26.839 22.2176 26.5404C22.5293 26.2351 22.6901 25.8707 22.6901 25.4243V19.3195C22.6901 20.3172 22.6638 20.304 22.6638 19.3195ZM21.1014 25.5556H15.1149H9.08854C8.99666 25.5556 8.95745 25.5164 8.95745 25.4243V23.0744V19.3195V19.2932C8.95745 18.0328 9.3871 16.9399 10.2571 16.0109C11.1332 15.0757 12.2003 14.5668 13.4475 14.4749L14.5107 15.8798L13.3554 22.838L15.0885 24.8073L16.8346 22.838L15.6793 15.8798L16.7427 14.4749C17.9504 14.5668 18.9748 15.0527 19.8281 15.919C20.6813 16.7856 21.2065 17.8211 21.2065 19.0437V19.2932V19.3195L21.2328 25.4243C21.2331 25.5164 21.1933 25.5556 21.1014 25.5556Z" fill="white" stroke="white" stroke-width="0.5"/>
</svg>
