<svg width="300" height="145" viewBox="0 0 300 145" fill="none" xmlns="http://www.w3.org/2000/svg">
<path d="M33.9032 36.2832H29.1515C12.7929 36.2832 11.3058 30.3346 11.3058 26.8525V26.5623H27.4468C27.4468 27.723 27.9546 29.464 31.7268 29.464C34.9188 29.464 35.8618 28.5572 35.8618 27.5779V27.4691C35.8618 26.5623 35.4991 25.728 30.8563 25.5467L25.1616 25.3653C14.0624 24.9663 11.741 21.049 11.741 16.8051V16.4787C11.741 11.4006 15.8035 8.28125 28.8614 8.28125H33.4679C47.9404 8.28125 51.3137 12.1261 51.3137 16.7689V16.9502H35.4991C35.3903 16.0797 34.955 14.7739 31.3641 14.7739C28.0634 14.7739 27.4468 15.2817 27.4468 16.1885V16.2611C27.4468 17.2404 28.4986 17.7845 32.6699 17.8933L38.1107 18.0384C48.6296 18.3286 52.3293 20.8676 52.3293 26.3447V26.8525C52.3293 31.6404 49.2462 36.2832 33.9032 36.2832Z" fill="white"/>
<path d="M63.2911 35.7391V18.0384H51.6478V8.75279H88.7177V18.0384H77.0744V35.7391H63.2911Z" fill="white"/>
<path d="M107.488 24.5311L104.187 17.0591L100.959 24.5311H107.488ZM112.421 35.7391L111.006 32.5109H97.513L96.0984 35.7391H82.17L94.9015 8.75279H114.271L127.8 35.7391H112.421Z" fill="white"/>
<path d="M141.422 19.5255H151.469C153.355 19.5255 153.972 18.8001 153.972 17.8208C153.972 16.8051 153.319 16.116 151.469 16.116H141.422V19.5255ZM141.422 27.1064V35.7391H127.638V8.75279H157.454C163.257 8.75279 168.081 10.2037 168.081 15.5719V15.8983C168.081 19.9245 164.309 21.6293 161.843 22.1371C166.159 22.9714 168.227 25.4016 168.227 28.92V33.0187C168.227 34.3608 168.408 34.9774 168.698 35.5215V35.7391H154.516C154.334 35.5577 154.334 35.3038 154.334 34.9048V31.6404C154.334 28.8837 152.992 27.1064 149.111 27.1064H141.422Z" fill="white"/>
<path d="M180.238 35.7391V18.0384H168.595V8.75279H205.665V18.0384H194.022V35.7391H180.238Z" fill="white"/>
<path d="M206.518 21.2666V8.75279H220.374V19.852C220.374 22.8626 221.643 26.0545 227.411 26.0545H227.483C233.142 26.0545 234.52 22.8626 234.52 19.852V8.75279H248.376V21.2666C248.376 26.6711 246.308 36.2106 228.318 36.2106H226.504C208.513 36.2106 206.518 26.6711 206.518 21.2666Z" fill="white"/>
<path d="M276.456 28.3759H263.434V35.7391H249.651V8.75279H276.456C286.902 8.75279 289.695 12.8878 289.695 17.9658V18.9089C289.695 23.987 286.757 28.3759 276.456 28.3759ZM263.434 16.6601V20.2147H273.082C274.969 20.2147 275.513 19.3805 275.513 18.4737V18.4011C275.513 17.4218 274.969 16.6601 273.082 16.6601H263.434Z" fill="white"/>
<path d="M34.5102 76.9249H23.9913L9.9541 49.9386H19.5299L29.4684 69.7793L38.7903 49.9386H47.5681L34.5102 76.9249Z" fill="white"/>
<path d="M56.0084 49.9386V76.9249H47.557V49.9386H56.0084Z" fill="white"/>
<path d="M58.4995 49.9386H66.9509V70.2146H85.7035V76.9249H58.4995V49.9386Z" fill="white"/>
<path d="M87.1883 49.9386H95.6397V70.2146H114.392V76.9249H87.1883V49.9386Z" fill="white"/>
<path d="M138.027 65.8982L132.803 55.7783L127.798 65.8982H138.027ZM143.685 76.9249L141.146 71.9919H124.787L122.357 76.9249H113.761L127.399 49.9386H138.353L152.789 76.9249H143.685Z" fill="white"/>
<path d="M168.146 77.3964H167.384C152.767 77.3964 149.393 69.2352 149.393 63.8307V62.8151C149.393 57.5557 152.15 49.467 167.674 49.467H169.234C184.323 49.467 186.971 56.0322 187.116 59.6957V59.732H178.121C177.903 59.1154 176.924 55.8872 168.509 55.8872C160.275 55.8872 158.244 59.4418 158.244 63.1778V63.5768C158.244 67.0952 161 70.8312 168.436 70.8312C176.452 70.8312 178.882 67.7481 178.882 66.9864V66.9138H168.291V61.7995H187.297V76.9249H182.219C182.111 75.9455 181.603 73.8418 181.131 72.7173C179.97 74.0594 176.488 77.3964 168.146 77.3964Z" fill="white"/>
<path d="M189.513 49.9386H217.951V56.0685H197.856V60.0584H217.479V66.2247H197.856V70.6498H218.313V76.9249H189.513V49.9386Z" fill="white"/>
<path d="M223.549 47.125L289.98 47.125L290.047 77.3516L223.549 77.3516L223.549 47.125Z" fill="#C5FF21"/>
<path d="M237.168 69.7722H228.675L234.128 62.3054L229.017 55.6366L237.757 55.6366L240.626 59.8355L243.494 55.6366L251.702 55.6366L246.895 62.3244L252.291 69.7722H243.608L240.398 65.3643L237.168 69.7722Z" fill="#020614"/>
<path d="M254.267 62.1914H250.6V58.6955C253.279 58.6195 254.837 57.5365 255.578 55.6366L261.487 55.6366V69.7722H254.267L254.267 62.1914Z" fill="#020614"/>
<path d="M284.612 62.4194V62.9894C284.612 65.7443 283.282 70.0572 273.953 70.0572H273.06C263.712 70.0572 262.382 65.7443 262.382 62.9894V62.4194C262.382 59.6455 263.712 55.3516 273.06 55.3516L273.953 55.3516C283.282 55.3516 284.612 59.6455 284.612 62.4194ZM277.183 62.7424V62.5144C277.183 61.2984 276.347 59.8355 273.497 59.8355C270.609 59.8355 269.811 61.2984 269.811 62.5144V62.7424C269.811 63.9584 270.647 65.5163 273.497 65.5163C276.366 65.5163 277.183 63.9584 277.183 62.7424Z" fill="#020614"/>
<path d="M21.3773 98.1004V113.4C21.3761 114.628 20.8878 115.805 20.0194 116.674C19.151 117.542 17.9735 118.03 16.7454 118.032H6.0779C4.84982 118.03 3.67236 117.542 2.80397 116.674C1.93558 115.805 1.44721 114.628 1.44607 113.4V102.732C1.44721 101.504 1.93558 100.327 2.80397 99.4583C3.67236 98.5899 4.84982 98.1015 6.0779 98.1004H21.3773ZM22.0792 97.3984H6.0779C4.6633 97.3984 3.30664 97.9604 2.30636 98.9607C1.30609 99.9609 0.744141 101.318 0.744141 102.732L0.744141 113.4C0.744141 114.814 1.30609 116.171 2.30636 117.171C3.30664 118.172 4.6633 118.733 6.0779 118.733H16.7454C18.16 118.733 19.5167 118.172 20.517 117.171C21.5172 116.171 22.0792 114.814 22.0792 113.4V97.3984Z" fill="white"/>
<path d="M18.3706 105.4H15.8101L13.3709 108.069V102.736H11.3953V104.036C11.3318 103.952 11.2625 103.869 11.1874 103.789C10.7831 103.391 10.3002 103.083 9.76964 102.884C9.23912 102.685 8.67275 102.599 8.10701 102.632C7.56392 102.607 7.02246 102.708 6.52543 102.929C6.02841 103.149 5.58945 103.482 5.24326 103.901C4.96311 104.244 4.76007 104.643 4.64793 105.072C4.5358 105.5 4.5172 105.948 4.5934 106.384C5.05264 108.437 6.95891 108.767 8.35829 108.949C9.46306 109.092 10.5245 109.295 10.4942 110.279C10.4639 111.262 9.31143 111.544 8.54025 111.544C6.56899 111.544 6.504 110.088 6.504 110.088H4.39844C4.43483 110.887 4.74017 111.65 5.26493 112.254C6.00144 113.082 7.10621 113.498 8.54892 113.498C9.58652 113.521 10.597 113.165 11.391 112.497V113.363H13.3666V110.872L14.0684 110.11L16.0657 113.389H18.3662L15.4722 108.585L18.3706 105.4ZM11.3953 107.8C9.97862 106.635 6.90259 107.367 6.57332 105.916C6.40003 105.153 7.1582 104.477 8.146 104.477C9.01249 104.477 9.91797 104.677 10.2559 105.916H11.3953V107.8Z" fill="white"/>
<path d="M27.8189 107.659C27.9092 107.476 28.0326 107.311 28.1828 107.173C28.3159 107.058 28.4612 106.958 28.616 106.874C28.7558 106.814 28.9008 106.766 29.0493 106.731C29.1651 106.711 29.2825 106.699 29.4002 106.697C29.6089 106.692 29.8173 106.715 30.0197 106.766C30.1718 106.809 30.3175 106.871 30.453 106.952C30.5717 107.021 30.6798 107.108 30.7736 107.208C30.8515 107.302 30.9224 107.402 30.9859 107.507C31.0385 107.602 31.082 107.702 31.1158 107.806L31.1938 108.07H32.8531C32.8403 107.875 32.8069 107.682 32.7535 107.494C32.6862 107.281 32.6022 107.074 32.5022 106.874C32.3777 106.661 32.2325 106.461 32.069 106.277C31.881 106.072 31.6634 105.897 31.4234 105.757C31.1514 105.599 30.8602 105.476 30.557 105.393C30.1804 105.297 29.7929 105.252 29.4045 105.258C29.1043 105.259 28.8051 105.293 28.512 105.358C28.2183 105.436 27.9347 105.548 27.6672 105.692C27.3936 105.836 27.1438 106.022 26.9264 106.242C26.6833 106.477 26.4747 106.745 26.3068 107.039C26.1305 107.375 26.0008 107.734 25.9212 108.105C25.8198 108.539 25.7718 108.984 25.7783 109.431C25.7676 110.017 25.8495 110.602 26.0209 111.163C26.1718 111.643 26.4163 112.088 26.7401 112.472C27.0544 112.835 27.449 113.12 27.8925 113.304C28.7682 113.652 29.7354 113.696 30.6393 113.429C31.005 113.313 31.3459 113.129 31.6444 112.888C31.9539 112.636 32.2127 112.327 32.4069 111.978C32.628 111.574 32.7748 111.134 32.8402 110.678H31.1938C31.1592 110.8 31.1028 110.956 31.0379 111.112C30.9726 111.289 30.8757 111.454 30.7519 111.597C30.6032 111.764 30.4219 111.9 30.219 111.995C29.9448 112.109 29.6492 112.162 29.3525 112.151C29.0723 112.156 28.7953 112.09 28.5467 111.961C28.2992 111.839 28.0862 111.657 27.9272 111.432C27.7466 111.169 27.6159 110.876 27.5416 110.566C27.447 110.189 27.4018 109.802 27.4073 109.413C27.4025 109.068 27.436 108.724 27.5069 108.386C27.5737 108.129 27.6789 107.884 27.8189 107.659Z" fill="white"/>
<path d="M39.3185 107.516H37.282L35.0809 109.751V107.516H33.5557V113.404H35.0809V111.545L35.7005 110.913L37.4293 113.404H39.4224L36.8877 109.964L39.3185 107.516Z" fill="white"/>
<path d="M44.3652 108.227C44.1023 107.947 43.7814 107.729 43.4249 107.586C43.02 107.424 42.587 107.345 42.151 107.352C41.7222 107.346 41.2965 107.425 40.8988 107.586C40.5403 107.73 40.2168 107.948 39.9499 108.227C39.6779 108.51 39.4735 108.851 39.3519 109.224C39.0689 110.033 39.0689 110.915 39.3519 111.724C39.4735 112.097 39.6779 112.438 39.9499 112.721C40.2202 112.996 40.5429 113.214 40.8988 113.362C41.2965 113.522 41.7222 113.602 42.151 113.596C42.587 113.603 43.02 113.524 43.4249 113.362C43.7788 113.215 44.0988 112.996 44.3652 112.721C44.6258 112.429 44.8288 112.091 44.9631 111.724C45.2288 110.912 45.2288 110.036 44.9631 109.224C44.8277 108.857 44.6249 108.519 44.3652 108.227ZM43.4986 111.148C43.4568 111.342 43.3789 111.528 43.2689 111.694C43.1584 111.863 43.0101 112.004 42.8356 112.105C42.6241 112.213 42.3884 112.266 42.151 112.257C41.9182 112.274 41.685 112.229 41.4751 112.127C41.2971 112.021 41.1482 111.872 41.0418 111.694C40.9194 111.517 40.8366 111.316 40.7991 111.104C40.7511 110.891 40.725 110.673 40.7211 110.454C40.7255 110.23 40.7516 110.007 40.7991 109.787C40.8388 109.579 40.9214 109.381 41.0418 109.207C41.1496 109.03 41.2982 108.881 41.4751 108.773C41.6866 108.677 41.9197 108.638 42.151 108.661C42.3699 108.641 42.5901 108.682 42.7873 108.779C42.9845 108.876 43.1512 109.025 43.2689 109.211C43.3819 109.391 43.4598 109.591 43.4986 109.8C43.591 110.245 43.591 110.703 43.4986 111.148Z" fill="white"/>
<path d="M46.5859 109.743C46.5859 110.263 46.5513 110.683 46.5209 111.012C46.4941 111.275 46.4419 111.535 46.3649 111.788C46.326 111.934 46.2446 112.065 46.131 112.165C46.0464 112.24 45.9361 112.279 45.8233 112.273C45.731 112.281 45.6383 112.281 45.546 112.273L45.3467 112.208V113.508C45.4497 113.551 45.5573 113.581 45.6673 113.599C45.8016 113.599 45.9446 113.621 46.1006 113.621C46.419 113.634 46.7342 113.553 47.0062 113.387C47.2531 113.205 47.4475 112.962 47.5695 112.681C47.7199 112.308 47.8204 111.918 47.8685 111.519C47.9248 111.051 47.9681 110.51 47.9941 109.89L48.0158 108.794H49.8313V113.404H51.3435V107.516H46.6292L46.5859 109.743Z" fill="white"/>
<path d="M58.2462 107.516H56.2097L54.0086 109.751V107.516H52.4834V113.404H54.0086V111.545L54.6282 110.913L56.357 113.404H58.3459L55.8111 109.964L58.2462 107.516Z" fill="white"/>
<path d="M63.2847 108.227C63.0235 107.946 62.7021 107.726 62.3445 107.586C61.9411 107.424 61.5094 107.345 61.0749 107.352C60.6461 107.346 60.2203 107.425 59.8227 107.586C59.4635 107.731 59.1387 107.949 58.8694 108.227C58.6008 108.513 58.3968 108.853 58.2715 109.224C57.9941 110.034 57.9941 110.914 58.2715 111.724C58.3957 112.096 58.5998 112.436 58.8694 112.721C59.1421 112.995 59.466 113.213 59.8227 113.362C60.2203 113.523 60.6461 113.602 61.0749 113.596C61.5094 113.603 61.9411 113.524 62.3445 113.362C62.6996 113.217 63.02 112.998 63.2847 112.721C63.5483 112.431 63.7516 112.093 63.8827 111.724C64.1484 110.912 64.1484 110.036 63.8827 109.224C63.7507 108.856 63.5475 108.517 63.2847 108.227ZM62.4181 111.148C62.38 111.353 62.302 111.549 62.1885 111.724C62.078 111.893 61.9296 112.034 61.7552 112.136C61.5437 112.244 61.308 112.296 61.0706 112.287C60.8395 112.292 60.6111 112.237 60.4076 112.127C60.2293 112.021 60.0804 111.872 59.9743 111.694C59.8519 111.517 59.7691 111.316 59.7317 111.104C59.6815 110.891 59.6554 110.673 59.6537 110.454C59.6559 110.23 59.682 110.006 59.7317 109.787C59.7707 109.577 59.8534 109.378 59.9743 109.202C60.0822 109.025 60.2307 108.877 60.4076 108.769C60.6132 108.662 60.8431 108.609 61.0749 108.617C61.2938 108.597 61.514 108.638 61.7112 108.735C61.9084 108.832 62.0751 108.982 62.1928 109.168C62.3058 109.348 62.3837 109.548 62.4225 109.757C62.5149 110.201 62.5149 110.66 62.4225 111.104L62.4181 111.148Z" fill="white"/>
<path d="M69.204 110.256C69.2993 110.211 69.3894 110.156 69.4727 110.091C69.5603 110.028 69.6352 109.948 69.6936 109.857C69.7668 109.757 69.8198 109.644 69.8496 109.524C69.8897 109.383 69.9073 109.237 69.9016 109.09C69.9136 108.826 69.8568 108.563 69.737 108.328C69.6288 108.132 69.4721 107.968 69.282 107.851C69.0747 107.737 68.8511 107.655 68.6191 107.608C68.3604 107.561 68.0978 107.538 67.8348 107.539H64.8018V113.41H68.1035C68.3893 113.414 68.6737 113.369 68.944 113.276C69.1826 113.198 69.4014 113.07 69.5853 112.899C69.7617 112.741 69.9008 112.545 69.9926 112.327C70.086 112.087 70.1316 111.831 70.1269 111.573C70.1345 111.283 70.0528 110.997 69.8929 110.754C69.7293 110.512 69.4852 110.336 69.204 110.256ZM66.3183 108.605H67.5358C67.6732 108.6 67.8105 108.616 67.9431 108.653C68.0353 108.676 68.1221 108.718 68.1988 108.774C68.2615 108.823 68.3107 108.887 68.3418 108.96C68.3735 109.037 68.3883 109.12 68.3851 109.203C68.3893 109.297 68.3746 109.392 68.3418 109.48C68.3165 109.558 68.2662 109.625 68.1988 109.671C68.1184 109.727 68.029 109.768 67.9345 109.792C67.7916 109.819 67.6466 109.834 67.5012 109.836H66.327L66.3183 108.605ZM68.4847 111.837C68.4613 111.928 68.4115 112.009 68.3418 112.071C68.2534 112.154 68.1486 112.218 68.0341 112.258C67.8585 112.31 67.6756 112.333 67.4925 112.327H66.3183V110.836H67.4925C67.6506 110.835 67.8086 110.847 67.9648 110.871C68.0812 110.88 68.1926 110.922 68.2854 110.992C68.3695 111.042 68.4326 111.121 68.4631 111.213C68.5077 111.329 68.5269 111.453 68.5194 111.577C68.5247 111.665 68.5159 111.753 68.4934 111.837H68.4847Z" fill="white"/>
<path d="M76.3546 109.208C76.2226 108.84 76.0194 108.501 75.7566 108.212C75.5006 107.934 75.1872 107.715 74.838 107.57C74.4331 107.409 74.0001 107.329 73.5641 107.336C73.1367 107.33 72.7123 107.41 72.3162 107.57C71.9534 107.713 71.6265 107.934 71.3584 108.217C71.0904 108.5 70.8878 108.838 70.765 109.208C70.482 110.018 70.482 110.899 70.765 111.708C70.8892 112.08 71.0933 112.42 71.363 112.705C71.6349 112.98 71.959 113.198 72.3162 113.346C72.7123 113.507 73.1367 113.587 73.5641 113.58C74.0001 113.587 74.4331 113.508 74.838 113.346C75.1925 113.2 75.5127 112.982 75.7783 112.705C76.0356 112.41 76.2315 112.067 76.3546 111.695C76.6202 110.883 76.6202 110.007 76.3546 109.195V109.208ZM74.8943 111.132C74.8568 111.338 74.7771 111.534 74.6604 111.708C74.5506 111.878 74.4021 112.019 74.2271 112.12C74.0157 112.229 73.7799 112.281 73.5424 112.272C73.3121 112.279 73.0837 112.227 72.8795 112.12C72.7015 112.014 72.5527 111.865 72.4462 111.687C72.3238 111.51 72.241 111.309 72.2036 111.097C72.1555 110.884 72.1294 110.666 72.1256 110.447C72.1299 110.223 72.156 110 72.2036 109.78C72.2426 109.57 72.3253 109.371 72.4462 109.195C72.554 109.018 72.7026 108.87 72.8795 108.762C73.0871 108.674 73.3137 108.639 73.5381 108.662C73.7748 108.651 74.0105 108.7 74.2227 108.805C74.3957 108.907 74.5437 109.046 74.656 109.213C74.7722 109.392 74.8517 109.592 74.89 109.802C74.9766 110.247 74.9766 110.704 74.89 111.149L74.8943 111.132Z" fill="white"/>
<path opacity="0.75" d="M92.5537 98.0625H91.5537V118.062H92.5537V98.0625Z" fill="white"/>
<path d="M136.493 107.305H130.74V104.172H138.468V102.594H129.394V104.172V113.522H136.471C138.056 113.522 139.293 112.138 139.293 110.365C139.293 108.908 138.251 107.305 136.493 107.305ZM136.471 111.944H130.718V108.787H136.471C137.253 108.787 137.882 109.491 137.882 110.365C137.882 111.239 137.253 111.944 136.471 111.944Z" fill="white"/>
<path d="M128.458 108.051C128.458 109.557 127.915 110.917 127.025 111.912C126.135 112.908 124.919 113.515 123.573 113.515H117.863V111.937H123.573C125.266 111.937 126.677 110.577 126.981 108.78H119.492V107.274H126.981C126.656 105.501 125.266 104.141 123.573 104.141H117.863V102.562H123.573C126.265 102.587 128.458 105.04 128.458 108.051Z" fill="white"/>
<path d="M116.151 107.905C116.628 107.347 116.932 106.57 116.932 105.72C116.932 103.971 115.673 102.562 114.132 102.562H107.554V113.491H114.371C115.934 113.491 117.193 112.082 117.193 110.334C117.193 109.362 116.78 108.488 116.151 107.905ZM114.11 104.165C114.87 104.165 115.5 104.87 115.5 105.72C115.5 106.57 114.87 107.274 114.11 107.274H108.9V104.165H114.11ZM114.371 111.937H108.9V108.78H114.371C115.152 108.78 115.782 109.484 115.782 110.358C115.782 111.232 115.152 111.937 114.371 111.937Z" fill="white"/>
<path d="M146.264 113.515H147.718V111.815H158.464V102.562H146.264V113.515ZM147.718 104.165H157.009V110.212H147.718V104.165Z" fill="white"/>
<path d="M159.853 111.815H168.124V113.515H169.557V111.815H177.828V102.562H159.831V111.815H159.853ZM169.578 104.165H176.417V110.212H169.578V104.165ZM161.286 104.165H168.124V110.212H161.286V104.165Z" fill="white"/>
<path d="M143.461 100.914H142.007V115.217H143.461V100.914Z" fill="white"/>
<path opacity="0.75" d="M193.828 98.0625H192.828V118.062H193.828V98.0625Z" fill="white"/>
<path d="M215.739 109.149L214.588 107.999L215.739 106.844V104.547L212.287 107.999L215.739 111.45V109.149Z" fill="white"/>
<path d="M208.828 102.242V113.758H220.344V102.242H208.828ZM218.7 112.114H210.473V103.887H218.7V112.114Z" fill="white"/>
<path d="M227.057 105.771C226.557 106.267 226.307 106.891 226.307 107.644C226.307 108.396 226.557 109.023 227.057 109.523C227.558 110.023 228.184 110.273 228.937 110.273C229.403 110.273 229.843 110.175 230.258 109.978C230.673 109.781 230.972 109.583 231.156 109.382L231.432 109.087L232.875 110.664C232.84 110.716 232.789 110.784 232.721 110.87C232.657 110.951 232.503 111.098 232.259 111.312C232.019 111.522 231.759 111.708 231.476 111.87C231.198 112.033 230.829 112.178 230.367 112.306C229.909 112.439 229.433 112.505 228.937 112.505C227.508 112.505 226.296 112.028 225.3 111.075C224.308 110.117 223.812 108.973 223.812 107.644C223.812 106.314 224.308 105.172 225.3 104.219C226.296 103.261 227.508 102.782 228.937 102.782C229.428 102.782 229.897 102.846 230.341 102.974C230.786 103.103 231.151 103.257 231.438 103.436C231.729 103.616 231.981 103.795 232.195 103.975C232.413 104.155 232.569 104.308 232.663 104.437L232.81 104.623L231.297 106.2C231.271 106.166 231.237 106.124 231.194 106.072C231.151 106.017 231.053 105.923 230.899 105.79C230.745 105.653 230.585 105.533 230.418 105.431C230.251 105.324 230.031 105.23 229.758 105.149C229.488 105.063 229.215 105.02 228.937 105.02C228.184 105.02 227.558 105.271 227.057 105.771ZM234.058 103.045H236.553V108.169L240.491 103.045H242.659V112.242H240.164V107.118L236.213 112.242H234.058V103.045ZM252.975 103.045V112.242H250.48V108.695H247.132V112.242H244.638V103.045H247.132V106.463H250.48V103.045H252.975ZM257.443 110.138H262.17V112.242H254.948V103.045H262.041V105.149H257.443V106.592H260.989V108.567H257.443V110.138ZM263.616 103.045H267.753C268.762 103.045 269.583 103.351 270.216 103.962C270.848 104.569 271.165 105.337 271.165 106.265C271.165 107.192 270.846 107.962 270.209 108.574C269.576 109.181 268.758 109.484 267.753 109.484H266.111V112.242H263.616V103.045ZM267.618 105.283H266.111V107.252H267.618C267.909 107.252 268.157 107.154 268.362 106.957C268.567 106.761 268.67 106.532 268.67 106.271C268.67 106.006 268.567 105.775 268.362 105.578C268.157 105.382 267.909 105.283 267.618 105.283ZM272.618 112.242V103.045H279.185V105.283H275.113V112.242H272.618ZM280.234 103.045H282.729V108.169L286.667 103.045H288.835V112.242H286.34V107.118L282.389 112.242H280.234V103.045ZM298.17 103.045V112.242H295.675V109.35H294.36L292.783 112.242H290.153L292.058 108.894C292.015 108.877 291.957 108.849 291.885 108.811C291.816 108.768 291.692 108.67 291.513 108.516C291.333 108.358 291.173 108.187 291.032 108.003C290.895 107.815 290.769 107.56 290.653 107.24C290.542 106.915 290.486 106.568 290.486 106.2C290.486 105.307 290.801 104.559 291.429 103.956C292.062 103.349 292.864 103.045 293.834 103.045H298.17ZM293.251 105.546C293.071 105.717 292.981 105.935 292.981 106.2C292.981 106.461 293.073 106.679 293.257 106.855C293.441 107.03 293.676 107.118 293.963 107.118H295.675V105.283H293.963C293.672 105.283 293.435 105.371 293.251 105.546Z" fill="white"/>
</svg>
