<svg width="31" height="30" viewBox="0 0 31 30" fill="none" xmlns="http://www.w3.org/2000/svg">
<path d="M15.5 26C21.5751 26 26.5 21.0751 26.5 15C26.5 8.92487 21.5751 4 15.5 4C9.42487 4 4.5 8.92487 4.5 15C4.5 21.0751 9.42487 26 15.5 26Z" stroke="white" stroke-width="1.5"/>
<path d="M4.5 13.3496C6.11569 12.5987 7.31066 12.4941 8.08491 13.0358C9.24633 13.8483 9.39194 17.1599 12.0335 15.5772C14.6751 13.9945 10.9023 13.3496 11.7214 11.057C12.5404 8.7643 15.2226 10.5452 15.4893 8.03391C15.667 6.35967 13.6323 5.71907 9.38513 6.11207" stroke="white" stroke-width="1.5"/>
<path d="M21.8666 6C18.8136 8.70855 17.7474 10.3442 18.6678 10.9068C20.0483 11.7507 20.6341 10.5625 22.3189 10.9068C24.0036 11.2511 23.6388 13.5718 22.7527 13.5718C21.8666 13.5718 17.2773 12.9778 17.5084 15.6998C17.7396 18.4216 20.5 18.8246 20.5 20.3453C20.5 21.3591 19.8892 22.9106 18.6678 25" stroke="white" stroke-width="1.5" stroke-linecap="round"/>
<path d="M5.5 20.0774C6.02738 19.8989 6.42381 19.768 6.68929 19.6848C8.91516 18.987 10.5668 18.8225 11.6441 19.1913C13.5491 19.8437 12.8167 21.1611 13.4134 21.6465C14.01 22.1318 15.5 21.9906 15.5 22.9139C15.5 23.5295 15.2336 24.2249 14.7007 25" stroke="white" stroke-width="1.5" stroke-linecap="round"/>
</svg>
