<svg width="31" height="30" viewBox="0 0 31 30" fill="none" xmlns="http://www.w3.org/2000/svg">
<path d="M8.73303 4.20985C8.25573 4.37875 8.02809 4.5403 7.71967 4.94417C7.39657 5.36273 7.33048 5.65646 7.33048 6.64779V7.50694L6.69163 7.53632C5.72233 7.58772 5.14956 7.92551 4.7824 8.68185L4.57679 9.10042L4.55476 16.216C4.54007 20.8862 4.5621 23.471 4.6135 23.7427C4.77506 24.6239 5.36251 25.3949 6.15557 25.7915L6.55945 25.9897H24.4768L24.8954 25.7915C25.4535 25.5345 25.9455 25.0645 26.2245 24.5211L26.4595 24.0805L26.4815 14.8795L26.4962 5.67849L26.342 5.31867C26.1658 4.9148 25.6958 4.43749 25.2699 4.23923C25.0055 4.11439 24.5062 4.10705 17.0602 4.09236C9.49672 4.07768 9.11488 4.07768 8.73303 4.20985ZM24.9615 5.67849L25.1744 5.89144V14.718C25.1744 22.5091 25.1597 23.5665 25.0643 23.8088C24.9101 24.1686 24.6824 24.4036 24.33 24.5652C24.0509 24.6973 23.647 24.7047 15.5549 24.7047C7.45532 24.7047 7.05879 24.6973 6.77974 24.5652C6.43462 24.4036 6.1262 24.0952 6.01605 23.8015C5.95731 23.662 5.93528 21.3195 5.93528 16.4509V9.30603L6.11151 9.1151C6.30244 8.90949 6.64022 8.81403 7.0441 8.85809L7.29377 8.88012L7.33048 15.9075L7.3672 22.935L7.53609 23.1039C7.77842 23.3535 8.24838 23.3315 8.47602 23.0672L8.65226 22.8615V14.4536C8.65226 5.45085 8.63757 5.75192 8.99739 5.54631C9.08551 5.49491 11.7731 5.47288 16.9354 5.46554H24.7485L24.9615 5.67849Z" fill="white"/>
<path d="M10.2907 7.03756L10.0851 7.2138L10.063 9.86469L10.041 12.5082L10.2613 12.7506L10.4743 12.9929L12.9269 13.0149C14.2707 13.0296 15.4823 13.0149 15.6218 12.9929C15.754 12.9635 15.9449 12.8681 16.0404 12.7726L16.2166 12.5964V9.98218C16.2166 7.30926 16.2019 7.1624 15.9303 6.95679C15.8421 6.8907 15.1298 6.86867 13.1545 6.86133H10.4963L10.2907 7.03756ZM14.8802 9.92344L14.8949 11.6344H11.4436V8.1831L13.1545 8.19779L14.8581 8.21982L14.8802 9.92344ZM17.7734 8.30059C17.5972 8.42543 17.5604 8.61635 17.7 8.75587C17.8248 8.8807 23.5672 8.8807 23.692 8.75587C23.8315 8.61635 23.7948 8.42543 23.6186 8.30059C23.479 8.19779 23.0752 8.1831 20.696 8.1831C18.3168 8.1831 17.9129 8.19779 17.7734 8.30059ZM17.7734 10.3567C17.5678 10.4962 17.5678 10.7165 17.7734 10.856C18.0231 11.0323 23.3689 11.0323 23.6186 10.856C23.7067 10.7973 23.7801 10.6798 23.7801 10.6064C23.7801 10.5329 23.7067 10.4154 23.6186 10.3567C23.479 10.2539 23.0752 10.2392 20.696 10.2392C18.3168 10.2392 17.9129 10.2539 17.7734 10.3567ZM17.8248 12.3981C17.5898 12.5156 17.5604 12.7652 17.7734 12.9121C17.9203 13.0149 18.2874 13.0296 20.696 13.0296C23.1045 13.0296 23.4717 13.0149 23.6186 12.9121C23.8315 12.7652 23.8021 12.5156 23.5598 12.3907C23.3028 12.2659 18.0818 12.2659 17.8248 12.3981ZM10.1365 14.5129C9.99696 14.6524 10.0337 14.8434 10.2099 14.9682C10.3568 15.071 11.1131 15.0857 16.9142 15.0857C22.7154 15.0857 23.4717 15.071 23.6186 14.9682C23.7948 14.8434 23.8315 14.6524 23.692 14.5129C23.5672 14.3881 10.2613 14.3881 10.1365 14.5129ZM10.1071 16.6718C10.0263 16.8407 10.0337 16.8848 10.1879 17.0023C10.3494 17.1344 10.6064 17.1418 16.9069 17.1418C22.7154 17.1418 23.4717 17.1271 23.6186 17.0243C23.7948 16.8995 23.8315 16.7085 23.692 16.569C23.6259 16.5029 22.0178 16.4809 16.8996 16.4809H10.1952L10.1071 16.6718ZM10.1071 18.7206C10.041 18.8748 10.0484 18.9262 10.1585 19.051C10.2907 19.1905 10.3861 19.1979 13.1398 19.1979C15.6292 19.1979 16.0037 19.1832 16.0991 19.0804C16.2387 18.9482 16.2534 18.7499 16.1285 18.6251C16.0624 18.559 15.2914 18.537 13.1178 18.537H10.1952L10.1071 18.7206ZM17.7 18.6251C17.5751 18.7499 17.5898 18.9482 17.7293 19.0804C17.8248 19.1832 18.1993 19.1979 20.696 19.1979C23.1927 19.1979 23.5672 19.1832 23.6626 19.0804C23.8021 18.9482 23.8168 18.7499 23.692 18.6251C23.5672 18.5003 17.8248 18.5003 17.7 18.6251ZM10.1071 20.7767C10.041 20.9309 10.0484 20.9823 10.1585 21.1071C10.2907 21.2466 10.3861 21.254 13.1398 21.254C15.6292 21.254 16.0037 21.2393 16.0991 21.1365C16.2387 21.0043 16.2534 20.806 16.1285 20.6812C16.0624 20.6151 15.2914 20.5931 13.1178 20.5931H10.1952L10.1071 20.7767ZM17.7 20.6812C17.5751 20.806 17.5898 21.0043 17.7293 21.1365C17.8248 21.2393 18.1993 21.254 20.696 21.254C23.1927 21.254 23.5672 21.2393 23.6626 21.1365C23.8021 21.0043 23.8168 20.806 23.692 20.6812C23.5672 20.5564 17.8248 20.5564 17.7 20.6812ZM10.1218 22.7887C10.019 22.987 10.0263 23.0604 10.1658 23.1926C10.2613 23.2954 10.6358 23.3101 13.1031 23.3101C14.9169 23.3101 15.9817 23.2807 16.0771 23.2366C16.2313 23.1485 16.2607 22.8695 16.1285 22.7373C16.0624 22.6712 15.2914 22.6492 13.1178 22.6492C10.3054 22.6492 10.1952 22.6565 10.1218 22.7887ZM17.7 22.7373C17.5751 22.8621 17.5898 23.0604 17.7293 23.1926C17.8248 23.2954 18.1993 23.3101 20.696 23.3101C23.1927 23.3101 23.5672 23.2954 23.6626 23.1926C23.8021 23.0604 23.8168 22.8621 23.692 22.7373C23.5672 22.6125 17.8248 22.6125 17.7 22.7373Z" fill="white"/>
</svg>
